<svg width="1154" height="744" viewBox="0 0 1154 744" fill="none" xmlns="http://www.w3.org/2000/svg">
<path d="M0 0H1154V744H0V0Z" fill="white"/>
<path d="M183.12 249.42H182.7C181.44 250.12 180.04 250.82 178.64 251.52C177.8 251.94 176.82 252.5 175.84 252.92C175.56 253.06 175.28 253.34 175 253.62L172.2 254.88C171.22 255.3 170.38 255.58 169.4 255.86C168.7 256.14 168.14 256.28 167.58 256.42C166.46 256.84 165.34 256.98 164.36 257.4H163.8C163.52 257.12 163.38 257.12 163.52 256.84C163.8 256.14 164.36 255.58 164.64 255.02C165.2 253.9 165.9 253.06 166.46 251.94C166.74 251.38 167.16 250.82 167.58 250.12C168 249.56 168.28 248.86 168.56 248.3C168.98 247.32 169.4 246.2 169.82 245.36C170.1 244.94 170.24 244.52 170.38 244.24C170.66 243.4 171.22 242.84 171.5 242.14L172.62 240.46C173.18 239.76 173.6 239.2 174.3 238.64C174.72 238.22 175.14 237.94 175.56 237.38C175.84 236.82 176.4 236.26 176.96 235.84C177.38 235.28 177.8 234.86 178.08 234.3L180.04 232.34C180.74 231.64 181.44 230.8 181.86 229.96C182.42 228.98 182.98 228 183.68 227.02L184.38 225.9C184.8 225.34 185.22 224.78 185.78 224.22C185.92 224.22 186.06 224.08 186.06 223.94C186.76 223.1 187.46 222.26 188.3 221.56C188.86 221.14 189.14 220.58 189.7 220.02C189.84 219.74 189.98 219.6 190.12 219.46C190.26 219.32 190.4 219.18 190.4 218.9H190.12C189.42 219.18 188.58 219.46 187.74 219.88C187.04 220.3 186.2 220.58 185.36 220.86C184.52 221.14 183.68 221.42 182.7 221.56C181.44 221.84 180.18 222.26 178.92 222.54C178.08 222.54 177.24 222.82 176.4 222.82C175.42 223.1 174.44 223.1 173.46 222.82H172.9C172.62 222.82 172.62 222.82 172.34 222.68C172.2 222.54 172.06 222.26 172.34 221.98L173.04 220.86C173.74 220.3 174.16 219.46 174.86 218.76C175.56 218.06 176.12 217.22 176.96 216.52C177.52 215.96 178.08 215.54 178.64 215.12C179.48 214.42 180.04 213.58 180.74 212.74C181.44 211.9 182.14 210.92 182.84 210.08L184.24 208.26C185.08 207.14 186.06 206.16 186.9 205.18L189.14 203.22C189.7 202.52 190.12 201.82 190.68 200.98C191.24 200.42 191.8 199.86 192.22 199.16C193.06 198.18 194.18 197.48 195.16 196.36C196.42 195.1 197.82 194.12 199.22 192.86C200.06 192.3 200.76 191.46 201.6 190.76C201.74 190.48 202.02 190.34 202.3 190.06C202.86 189.5 203.56 189.08 203.98 188.52C204.26 188.1 204.68 187.82 205.1 187.54C205.8 187.12 206.36 186.42 207.2 185.86C207.76 185.44 208.32 185.02 208.88 184.74L210.56 183.9C211.12 183.62 211.54 183.2 211.96 182.92C212.38 182.5 212.8 182.36 213.08 182.08C213.78 181.66 214.62 181.24 215.46 180.82C215.74 180.68 216.02 180.4 216.44 180.26C216.72 180.12 217 180.12 217.28 180.12C217.42 180.26 217.56 180.4 217.42 180.68C217.28 181.1 217.28 181.52 217.14 181.94C217.14 182.22 217 182.36 217.14 182.64C217.14 182.78 217.14 182.92 217 183.06L216.3 184.32C216.02 184.74 216.02 185.3 215.74 185.86C215.74 186 215.6 186 215.74 186.14C215.74 186.42 215.74 186.56 215.46 186.7C215.18 187.26 214.76 187.54 214.62 188.1C214.34 188.94 213.78 189.5 213.36 190.2C212.8 191.32 211.96 192.3 211.12 193.42C210.56 194.4 210 195.24 209.44 196.08C208.88 196.92 208.04 197.76 207.48 198.6C207.06 198.88 206.92 199.16 206.5 199.58C206.08 200.14 205.52 200.56 205.1 201.26L204.4 202.1C204.26 202.52 203.98 202.94 203.7 203.22C203.14 203.64 202.86 204.06 202.58 204.62V204.9C203 204.9 203.28 204.76 203.56 204.62C204.12 204.34 204.82 204.34 205.52 204.06C206.22 204.06 206.92 203.78 207.76 203.78C208.74 203.5 209.72 203.5 210.84 203.64C211.68 203.78 212.52 203.78 213.36 203.78H213.78C213.92 203.78 214.06 203.78 214.34 204.06C214.34 204.2 214.34 204.34 214.2 204.62C214.06 204.62 214.06 204.9 214.06 205.04C213.5 206.02 213.36 207 212.8 207.98H212.66C212.38 208.82 211.82 209.66 211.26 210.36C210.56 211.48 209.72 212.6 209.16 213.72C208.6 214.84 207.76 215.96 206.92 216.8C206.36 217.22 205.94 217.92 205.52 218.48C204.82 219.32 204.26 220.02 203.7 220.86C202.86 221.84 202.3 222.82 201.6 223.66C201.18 224.22 200.62 224.78 200.2 225.2C199.36 226.32 198.52 227.16 197.82 228.14C197.4 228.56 196.98 229.12 196.56 229.68C196.56 229.82 196.28 229.96 196.28 230.24C196.14 230.24 196 230.24 196.14 230.38C196.28 230.52 196.28 230.52 196.42 230.52C197.12 230.24 197.82 229.96 198.52 229.82C198.94 229.68 199.22 229.68 199.5 229.68C199.78 229.54 200.06 229.54 200.34 229.4C201.18 228.84 202.16 228.56 203.14 228.28C204.12 228 205.1 228 206.08 227.72C206.64 227.58 207.2 227.44 207.76 227.44C208.46 227.16 209.3 227.16 210 227.02C210.28 226.88 210.42 226.88 210.56 227.16V227.72C209.86 228.56 209.44 229.54 209.16 230.52C208.88 231.08 208.74 231.5 208.6 231.92C208.18 232.62 208.04 233.18 207.48 233.88C207.34 234.02 207.2 234.3 206.92 234.44C206.92 234.58 206.92 234.86 206.64 234.86L205.8 236.12C205.66 236.4 205.52 236.82 205.38 236.96C204.96 237.66 204.54 238.36 203.98 239.06C203.28 240.18 202.3 241.16 201.6 242.28L200.06 244.66C199.64 245.08 199.22 245.64 198.94 246.06C198.38 246.76 197.96 247.6 197.4 248.3C197.12 248.86 196.56 249.28 196.28 249.84C195.44 250.82 194.6 251.94 193.9 252.92L192.92 254.18C192.22 254.74 191.66 255.44 191.24 256.14L189.84 257.68C189.42 258.52 188.86 259.22 188.3 259.92C187.46 260.9 186.9 261.88 186.06 262.72C185.92 263 185.78 263.42 185.5 263.7C185.22 264.26 184.8 264.68 184.38 265.1C183.54 266.08 182.56 267.2 181.72 268.32L179.2 271.54C178.5 272.1 177.94 272.94 177.52 273.64C177.24 273.92 176.96 274.06 176.82 274.2C176.4 274.9 175.84 275.32 175.28 276.02C175 276.58 174.3 277 173.74 277.28C173.18 277.7 172.62 278.12 172.06 278.68C171.78 278.96 171.22 279.24 170.8 279.66C170.24 280.08 169.82 280.5 169.4 280.92C168.98 281.34 168.7 281.76 168.14 282.18C167.72 282.6 167.16 283.02 166.46 283.3L164.78 284.14C164.22 284.42 163.8 284.7 163.24 284.84C162.96 284.98 162.68 284.98 162.54 285.26C162.26 285.54 161.56 285.4 161.56 284.98C161.42 284.84 161.56 284.7 161.56 284.7C161.84 284.42 162.12 284.14 162.12 283.86C162.4 283.44 162.82 283.02 163.24 282.74C163.52 282.46 163.52 282.04 163.66 281.62C163.8 280.64 164.08 279.52 164.64 278.68C164.92 277.84 165.2 277 165.62 276.44C166.18 275.6 166.74 274.9 167.3 274.2C167.72 273.78 168.14 273.36 168.42 272.8L168.84 272.24C169.12 271.54 169.54 270.84 169.82 270.14C170.1 269.58 170.38 269.16 170.66 268.74C171.5 267.76 172.2 266.78 172.9 265.94C173.46 264.96 173.88 264.12 174.44 263.28C175 261.88 175.84 260.48 176.96 259.36L178.64 256.84C178.92 256.14 179.48 255.44 180.04 254.74C180.74 253.62 181.44 252.5 182 251.38C182.28 250.82 182.7 250.12 183.12 249.56V249.42ZM170.8 245.36C171.08 245.36 171.22 245.08 171.22 245.08C171.5 244.38 172.06 243.96 172.48 243.4C172.9 243.12 173.18 242.84 173.46 242.28C173.74 241.72 174.16 241.3 174.58 240.74C175 240.32 175.28 239.76 175.84 239.34C176.68 238.5 177.52 237.38 178.5 236.54C178.64 236.54 178.64 236.26 178.78 236.26C178.92 235.98 179.06 235.7 179.2 235.56C179.48 235.42 179.62 235.14 179.76 235C179.9 234.58 180.18 234.16 180.6 233.74C180.88 233.46 181.16 233.18 181.3 232.9C181.44 232.62 181.58 232.34 181.86 232.2C182.7 231.08 183.54 229.96 184.38 228.98C184.38 228.84 184.52 228.84 184.52 228.84C184.94 228.56 185.22 228.28 185.5 228C185.78 227.72 185.92 227.44 186.34 227.16C186.34 227.16 186.34 227.02 186.48 227.02C186.62 226.6 187.04 226.18 187.46 225.9C187.74 225.76 187.74 225.48 188.02 225.2C188.3 224.64 188.86 224.22 189.14 223.52V223.38C189.56 222.96 189.84 222.54 190.12 221.98C190.68 221.42 190.96 220.86 191.52 220.44C192.08 220.02 192.36 219.6 192.92 219.18C193.34 218.9 193.48 218.2 194.04 217.92C194.04 217.92 194.04 217.78 194.18 217.78L194.6 216.94C195.16 216.38 195.72 215.68 196 214.98C196.14 214.7 196.14 214.56 195.72 214.56C195.02 214.7 194.18 214.7 193.48 214.98C192.36 215.4 191.1 215.4 189.84 215.54C189.28 215.68 188.58 215.68 187.74 215.82L186.2 216.24C184.8 216.52 183.54 216.8 182.14 217.22C181.44 217.36 180.88 217.5 180.18 217.5C180.04 217.5 179.76 217.5 179.76 217.22C179.76 217.08 179.76 216.94 179.9 216.8C180.04 216.8 180.04 216.66 180.18 216.66C180.32 216.52 180.46 216.38 180.46 216.24C180.6 215.96 180.88 215.68 180.88 215.4C181.02 215.4 181.02 215.26 181.16 215.12C181.58 214.84 182 214.14 182.42 213.72C182.42 213.44 182.42 213.16 182.7 213.16C183.12 212.6 183.54 212.04 184.1 211.48C184.66 210.92 185.08 210.5 185.5 210.08L186.34 209.1C186.9 208.82 187.32 208.26 187.74 207.84C188.02 207.42 188.58 206.86 189 206.58C189.56 206.16 190.12 205.74 190.68 205.18C191.24 204.62 191.66 204.2 192.08 203.64C192.08 203.5 192.22 203.36 192.36 203.36C192.64 203.22 192.92 202.94 193.2 202.66L193.48 202.38C194.46 201.82 195.3 200.98 196.28 200.28C196.84 199.72 197.12 199.16 197.82 198.74C198.66 198.04 199.5 197.48 200.06 196.78C200.9 196.08 201.6 195.38 202.16 194.54C202.16 194.4 202.3 194.4 202.3 194.4L203.28 193.56C203.7 193.28 204.26 192.86 204.68 192.44L205.66 191.6C206.08 191.32 206.36 191.04 206.64 190.62C207.06 190.2 207.34 189.64 207.76 189.22C208.18 188.66 208.6 188.1 209.16 187.68C209.44 187.54 209.58 187.4 209.72 187.26C209.72 187.12 210 186.98 210.14 186.98C210.42 186.84 210.7 186.7 210.84 186.42C211.12 186.14 211.26 186 211.54 185.86C211.82 185.72 211.96 185.58 212.24 185.3C212.66 184.74 213.22 184.32 213.78 183.76C213.78 183.62 214.06 183.62 214.34 183.9C214.48 184.04 214.48 184.32 214.34 184.46C214.2 184.6 214.06 184.6 214.06 184.74C214.06 185.16 213.78 185.44 213.64 185.86C213.36 186.7 212.94 187.54 212.52 188.24C212.1 188.94 211.68 189.5 211.26 190.34C211.12 190.48 211.12 190.62 210.84 190.9C210.42 191.74 210 192.44 209.44 193L208.6 194.54C208.32 194.96 208.04 195.52 207.62 196.08C207.2 196.92 206.64 197.76 206.08 198.6C205.94 198.6 205.8 198.88 205.8 199.16C206.08 198.88 206.22 198.74 206.36 198.46C206.64 198.04 206.78 197.76 207.2 197.48C207.62 197.06 208.04 196.5 208.46 195.94C209.02 195.24 209.58 194.4 210 193.56C210.7 192.58 211.4 191.74 212.1 190.62C212.52 189.92 213.08 189.22 213.5 188.38C214.06 187.26 214.62 186.14 215.04 185.16C215.32 184.46 215.74 183.76 216.02 183.06C216.3 182.64 216.3 182.08 216.44 181.52C216.44 181.24 216.3 181.24 216.16 181.38C216.02 181.52 215.74 181.52 215.6 181.66L213.08 182.92C212.8 183.2 212.52 183.48 212.24 183.9C212.1 184.04 211.96 184.18 211.82 184.18C211.68 184.18 211.68 184.18 211.54 184.32C210.84 184.6 210 185.02 209.16 185.58C208.88 185.72 208.32 185.86 208.04 186.14C207.62 186.56 207.2 186.98 206.78 187.26C206.36 187.68 205.94 188.1 205.38 188.38C205.1 188.66 204.96 188.8 204.82 188.94L203.98 189.78C203.14 190.48 202.16 191.32 201.32 192.16C200.34 193 199.22 193.84 198.24 194.82C197.4 195.52 196.7 196.08 196 196.92C195.44 197.48 194.88 198.04 194.18 198.46L193.34 199.16C192.5 200 191.66 200.98 190.96 202.1C190.4 202.94 189.84 203.64 189.14 204.2L187.88 205.32C187.32 206.02 186.62 206.58 186.06 207.28C185.5 207.84 185.22 208.4 184.66 208.96L180.88 213.72C180.18 214.56 179.34 215.4 178.5 216.24C177.8 216.8 177.1 217.22 176.68 217.92C176.26 218.34 175.84 218.76 175.56 219.18C175.28 219.32 175.14 219.6 175 219.88C174.72 220.3 174.3 220.58 173.88 221C173.74 221.28 173.46 221.56 173.18 221.84C173.04 222.12 173.04 222.26 173.46 222.26C174.3 222.4 175.14 222.4 176.12 222.26C176.96 222.26 177.8 221.98 178.5 221.84C179.2 221.7 180.04 221.56 180.88 221.28C181.44 221.14 182.14 221 182.84 220.86L184.38 220.44C185.36 220.3 186.2 219.88 187.18 219.46C187.74 219.18 188.16 218.76 188.86 218.62L190.68 218.06C191.1 217.92 191.52 217.78 191.8 217.5C191.94 217.36 192.22 217.36 192.36 217.5C192.64 217.64 192.78 217.78 192.5 218.06C192.36 218.2 192.22 218.34 192.08 218.48L190.54 220.16C189.98 220.86 189.42 221.56 188.72 222.12C188.16 222.68 187.6 223.24 187.18 223.8L186.06 225.06C185.64 225.48 185.22 225.76 185.08 226.18C184.94 226.6 184.66 226.88 184.38 227.16C183.68 228.28 182.98 229.4 182.42 230.52C181.86 231.08 181.58 231.78 181.16 232.2C180.32 233.04 179.62 233.74 178.92 234.58C178.36 235.28 177.8 235.98 177.24 236.54C177.24 236.68 177.1 236.82 177.1 236.82C176.54 237.66 175.98 238.5 175.28 239.06C175 239.06 175 239.34 174.72 239.34C174.02 240.04 173.46 240.74 172.9 241.58C172.62 242.28 172.06 242.98 171.78 243.68C171.36 244.24 171.08 244.8 170.8 245.36ZM209.86 188.38C210 188.38 210.28 188.38 210.28 188.1H210.56C210.7 188.24 210.7 188.38 210.7 188.38C210.56 188.8 210.42 189.22 210 189.5C209.86 189.78 209.72 189.92 209.58 190.06C209.3 190.34 209.16 190.48 208.88 190.62C207.76 191.74 206.92 192.86 205.94 193.98C205.1 194.96 204.26 195.94 203.28 196.92L201.32 198.88C200.9 199.44 200.34 200 200.06 200.56C199.22 201.26 198.66 202.1 197.82 202.94C197.4 203.5 196.84 203.92 196.42 204.34C196 204.76 195.72 205.04 195.3 205.46L194.46 206.3C193.9 207 193.2 207.42 192.5 208.12C192.36 208.26 192.22 208.54 191.94 208.68L189.42 210.78C189.14 210.92 188.86 211.2 188.72 211.34C188.58 211.48 188.58 211.62 188.86 211.62C189.56 211.76 190.54 212.04 191.38 212.18C191.52 212.18 191.66 212.18 191.8 212.04C192.64 211.76 193.62 211.76 194.46 211.48C195.44 211.34 196.28 211.2 197.26 210.78C197.68 210.64 198.1 210.36 198.66 210.36C199.78 210.22 200.9 209.94 201.88 209.52C202.86 209.1 203.7 208.68 204.68 208.12C205.38 207.7 206.22 207.42 207.06 207.14C207.76 206.86 208.32 207.42 208.32 207.98C208.32 208.12 208.32 208.26 208.18 208.4C208.04 208.54 207.9 208.54 207.76 208.68L206.08 210.36C205.1 211.48 203.98 212.6 202.86 213.58C202.44 214.14 201.88 214.56 201.46 215.12C200.9 215.68 200.48 216.24 200.06 216.8C199.5 217.22 198.94 217.78 198.38 218.34L196.42 220.58C195.44 221.7 194.32 222.96 193.34 224.22C192.5 224.92 191.8 226.04 191.1 226.88C190.96 227.16 190.68 227.44 190.4 227.72C190.12 228.28 189.84 228.84 189.42 229.4C189.14 229.82 188.72 230.24 188.44 230.8L186.34 233.46C186.06 234.02 185.5 234.72 185.08 235.28C184.38 236.26 183.82 237.1 183.12 237.94C182.7 238.36 182.14 238.78 181.86 239.34C181.3 240.18 180.6 240.88 180.04 241.72C180.04 241.86 179.9 242 179.76 242.14C179.76 242.28 179.48 242.28 179.48 242.56C180.04 242.42 180.46 242.28 180.88 242C181.58 241.86 182.42 241.72 183.12 241.3L187.46 239.62C188.86 239.2 190.12 238.78 191.52 238.78C192.36 238.78 193.06 238.64 193.9 238.5C194.6 238.5 195.16 238.36 195.58 238.08C196 237.94 196.28 237.66 196.56 237.66C196.7 237.52 196.84 237.52 196.98 237.52C197.26 237.66 197.4 238.08 197.26 238.36C197.12 238.78 196.84 239.06 196.56 239.48C196.28 240.18 196 240.88 195.44 241.58C194.32 243.12 193.34 244.66 192.22 246.2L189.84 249.56C189.7 249.98 189.42 250.4 189 250.82C188.3 251.52 187.74 252.08 187.32 253.06C187.32 253.06 187.18 253.06 187.18 253.2C186.62 253.62 186.06 254.32 185.64 254.88C184.8 255.72 184.1 256.7 183.4 257.68C183.26 257.96 183.12 258.24 182.84 258.52L181.72 260.06C181.44 260.76 180.88 261.32 180.46 262.02C180.04 262.72 179.48 263.28 178.92 263.84L178.08 265.1C177.66 265.52 177.38 265.94 176.96 266.5L175.56 268.32C175.28 268.88 174.72 269.3 174.3 270L173.46 271.12C173.46 271.26 173.32 271.26 173.32 271.26C173.04 271.82 172.76 272.1 172.48 272.38C172.34 272.52 172.34 272.66 172.2 272.8L171.22 274.2C170.66 274.62 170.38 275.04 170.1 275.46L169.54 276.44C169.26 276.72 168.98 276.72 168.98 277L168.14 277.98C168 278.12 167.72 278.26 167.58 278.54C167.86 278.68 167.86 278.4 168 278.4C168.7 277.7 169.54 277 170.38 276.3C171.5 275.32 172.48 274.2 173.46 273.22C173.88 272.52 174.44 271.82 175 270.98C175.7 270.14 176.4 269.16 176.96 268.18C177.66 267.34 178.36 266.22 179.2 265.38C179.48 264.96 179.9 264.4 180.46 263.98C180.88 263.56 181.3 263.28 181.58 262.86C182.42 262.16 182.98 261.32 183.68 260.76C184.94 259.22 186.34 257.82 187.46 256.28C188.16 255.3 188.86 254.18 189.56 253.34C190.26 252.22 190.96 251.1 191.8 249.98C192.36 249.14 192.92 248.44 193.62 247.6L194.32 246.76C194.6 246.2 195.16 245.92 195.44 245.36L196.7 243.68C197.26 242.98 197.82 242.28 198.38 241.72C198.8 241.16 199.22 240.74 199.5 240.18C200.06 239.48 200.48 238.78 200.9 238.08C201.46 237.38 202.02 236.82 202.3 235.98C202.58 235.7 202.72 235.14 202.72 234.58C202.72 234.3 202.58 234.3 202.44 234.3C202.3 234.44 202.16 234.44 202.02 234.44L201.04 234.58C200.9 234.72 200.9 234.86 200.62 234.72L200.34 234.86C199.78 234.86 199.22 235 198.8 235.14C197.96 235.28 197.26 235.42 196.42 235.7C195.72 235.84 195.16 236.12 194.6 236.26C193.9 236.4 193.34 236.82 192.64 236.96C191.66 237.24 190.68 237.38 189.56 237.66H189.14C188.58 237.52 188.58 237.24 188.72 236.82C188.86 236.68 188.86 236.54 189 236.26C189 236.26 189.14 236.12 189.14 235.98C189.42 235.84 189.42 235.7 189.56 235.42C189.56 235.14 189.56 235.14 189.84 234.86L191.1 233.46C191.24 233.32 191.24 233.18 191.24 233.18C191.52 232.76 191.66 232.2 192.08 231.78C192.36 231.36 192.64 231.08 192.92 230.66L195.44 227.3C195.72 227.02 195.86 226.74 196 226.46C196 226.18 196.14 226.04 196.28 225.76C196.56 225.62 196.84 225.34 197.12 225.06C197.82 223.94 198.8 223.1 199.78 221.98C199.92 221.84 200.06 221.7 200.2 221.42L200.62 220.58C201.32 220.02 201.74 219.18 202.3 218.62C202.44 218.48 202.58 218.34 202.58 218.2C202.72 217.78 203 217.5 203.14 217.22C203.84 216.66 204.4 215.96 204.96 215.26C205.1 215.12 205.38 214.84 205.52 214.42C205.66 214.14 205.8 213.86 206.08 213.58L207.06 212.18C207.48 211.34 208.04 210.5 208.6 209.66C208.88 208.96 209.3 208.26 209.72 207.42C210 207.28 210 207.14 210.14 206.86C210.42 206.3 210.84 205.88 210.98 205.46C211.12 205.18 211.12 205.18 211.4 205.18C211.82 205.18 211.96 205.46 211.82 205.88C211.68 206.3 211.4 206.58 211.12 206.86C210.84 207.42 210.56 208.12 210.14 208.68L208.88 210.92C208.6 211.2 208.6 211.62 208.32 211.9L207.9 212.46C207.9 212.6 207.76 212.88 207.62 213.02L206.36 214.7C205.8 215.68 205.1 216.52 204.26 217.5C204.12 217.64 203.98 217.92 203.7 218.06C203.42 218.62 203.14 219.18 202.58 219.74L201.6 221C201.32 221.56 200.9 221.98 200.62 222.4L198.1 225.2C197.68 225.48 197.26 226.04 196.98 226.46L196.28 227.72C195.58 228.56 194.88 229.54 194.04 230.38C193.2 231.5 192.5 232.48 191.8 233.74C191.8 233.74 191.8 233.88 191.66 234.02C191.24 234.58 190.68 235.28 190.26 235.98C190.12 235.98 190.12 236.26 189.98 236.26C189.84 236.54 189.98 236.68 190.26 236.54H190.96C191.52 236.4 192.36 236.26 192.92 235.98C193.06 235.84 193.2 235.84 193.2 235.7C194.04 235.7 194.6 235.28 195.44 235.14C196 235 196.56 234.72 197.12 234.58C197.54 234.58 197.96 234.44 198.38 234.3L198.94 234.16C199.36 234.16 199.64 234.02 200.06 234.02C200.34 233.88 200.9 233.74 201.18 233.74H201.46C201.88 233.46 202.3 233.46 202.58 233.46C202.72 233.32 202.86 233.18 202.86 233.46C203.14 233.74 203.42 233.88 203.42 234.16C203.42 234.86 203.7 235.42 203.14 235.84V235.98C203 236.4 202.86 236.82 202.58 237.1C202.3 237.8 201.88 238.22 201.46 238.78C201.18 239.34 200.76 239.9 200.34 240.46C200.06 241.02 199.64 241.58 199.22 242.14L197.68 243.82C197.26 244.24 196.84 244.94 196.42 245.36C196.28 245.78 196 246.2 195.72 246.48C195.3 246.76 195.02 247.32 194.6 247.88L193.2 249.56C192.78 250.26 192.22 250.82 191.8 251.52C191.1 252.5 190.4 253.34 189.84 254.32C189.28 255.3 188.58 256.14 188.02 256.98C187.46 257.68 186.9 258.24 186.34 258.8C186.2 259.22 185.78 259.36 185.64 259.78C185.36 260.2 184.94 260.48 184.66 260.9L183.12 262.44C182.7 263 182.14 263.56 181.72 263.84C181.02 264.54 180.32 265.1 179.76 265.94C179.2 266.78 178.5 267.62 177.8 268.46C177.1 269.3 176.4 270.42 175.7 271.26C175.42 271.68 175.28 272.1 175 272.38C174.58 272.94 174.3 273.36 173.88 273.78C173.46 274.62 172.62 275.46 171.78 276.16C171.22 276.72 170.66 277.28 169.96 277.7C168.98 278.54 168.14 279.52 167.16 280.22C167.02 280.36 166.88 280.36 166.74 280.36H166.18C165.9 280.36 165.62 280.36 165.48 280.22C165.9 279.8 166.18 279.38 166.46 278.96C166.46 278.68 166.74 278.4 166.74 278.12C166.74 277.98 166.74 277.84 166.88 277.84C167.02 277.84 167.16 277.56 167.3 277.28C167.3 277 167.58 276.58 167.86 276.16C168.28 275.88 168.42 275.46 168.7 275.04C169.26 274.48 169.68 273.78 170.1 273.08C170.52 272.24 171.08 271.4 171.64 270.56L172.9 268.32C173.04 267.9 173.18 267.62 173.46 267.34C173.88 266.5 174.44 265.8 175 265.1C175.28 264.4 175.98 263.84 176.4 263V262.86C176.96 262.44 177.24 261.88 177.52 261.32C177.8 261.04 177.94 260.62 178.22 260.2L179.48 258.52C180.04 257.68 180.74 256.84 181.3 256.14C181.86 255.16 182.42 254.32 182.98 253.48C183.54 252.64 184.1 251.8 184.66 250.82L185.92 248.3C186.62 247.04 187.04 245.64 187.74 244.52C187.88 244.24 187.74 244.24 187.6 244.24H186.9C186.48 244.38 186.2 244.52 185.78 244.52L182.7 245.36C182.42 245.5 182.28 245.64 182.14 245.64C181.16 246.2 180.32 246.48 179.2 246.62C178.64 246.76 178.08 246.76 177.52 247.04C176.12 247.6 174.44 247.88 172.9 248.16C172.34 248.3 171.78 248.3 171.22 248.44C170.94 248.44 170.66 248.44 170.24 248.58C169.82 248.58 169.82 248.44 169.82 248.16V248.02C169.68 248.02 169.54 248.02 169.54 248.16C169.54 248.16 169.54 248.3 169.4 248.44C168.98 249.28 168.56 250.26 168 250.96C167.58 251.66 167.16 252.22 166.88 252.92C166.32 253.9 165.76 254.74 165.2 255.58C165.06 255.86 164.78 256.14 164.64 256.42V256.56H164.78L165.76 256.14C166.04 256.14 166.18 256.14 166.32 255.86C166.46 255.72 166.74 255.58 167.02 255.72C167.02 255.86 167.3 255.72 167.3 255.72C167.58 255.72 167.86 255.58 168.28 255.44C170.1 254.88 171.78 254.18 173.6 253.34C174.44 252.92 175.42 252.22 176.4 251.8C177.66 251.24 178.92 250.54 180.18 249.98L181.44 249.28C181.86 249.14 182.14 248.86 182.42 248.86C183.12 248.58 183.68 248.3 184.1 247.88C184.24 247.74 184.38 247.74 184.38 247.6C184.52 247.6 184.94 247.74 185.08 247.88C185.22 248.16 185.22 248.3 184.94 248.44C184.94 248.58 184.8 248.58 184.66 248.72C183.96 249.7 183.26 250.82 182.7 252.08C182.14 253.06 181.58 253.9 181.02 254.74L179.06 257.68C178.92 258.24 178.64 258.66 178.22 259.08C177.66 259.78 176.96 260.34 176.54 261.04L175.14 263.56C174.58 264.68 173.88 265.66 173.18 266.78C172.48 267.76 171.64 268.74 170.94 269.86C170.66 270.14 170.38 270.56 170.24 271.12C170.24 271.26 170.1 271.26 170.1 271.4C169.82 271.68 169.82 271.96 169.68 272.1C169.12 273.08 168.7 273.92 168 274.76C167.86 274.9 167.58 275.04 167.44 275.32C167.3 275.6 167.16 275.88 166.88 276.16C166.74 276.3 166.74 276.44 166.6 276.44C166.18 276.86 166.18 277.42 165.9 277.84C165.48 278.4 165.48 278.96 165.06 279.52C164.64 280.36 164.5 281.06 164.36 281.9V282.46C163.94 282.88 163.66 283.44 163.24 283.86C163.1 283.86 162.96 284 163.1 284.14C163.24 284.14 163.24 284.14 163.38 284C164.08 283.72 164.78 283.3 165.48 283.02C165.9 282.74 166.46 282.46 167.02 282.18C167.58 281.76 168 281.2 168.42 280.78C168.56 280.64 168.7 280.64 168.7 280.5C168.7 280.36 168.84 280.36 168.84 280.22L170.38 278.96C170.94 278.54 171.5 278.26 171.78 277.56H172.06C172.48 277.28 172.9 277 173.46 276.72C173.88 276.3 174.3 276.02 174.58 275.6C174.86 275.32 175.14 274.9 175.42 274.62L176.96 272.94C177.24 272.66 177.24 272.24 177.52 271.96C178.92 270.7 180.04 269.3 181.16 267.9C182 266.78 182.84 265.52 183.82 264.4C184.1 264.12 184.38 263.84 184.66 263.42C185.08 262.72 185.5 262.02 186.06 261.32C187.46 259.64 188.58 257.96 189.84 256.42C190.4 255.58 190.96 254.74 191.8 254.04L193.06 252.64C193.48 252.22 193.62 251.66 194.04 251.24C194.88 250.26 195.44 249.14 196.28 248.3C196.84 247.88 197.12 247.32 197.4 246.76C198.38 245.36 199.36 244.1 200.2 242.7C200.62 242 201.18 241.16 201.74 240.6C202.86 239.34 203.7 237.8 204.82 236.26C205.38 235.42 205.94 234.58 206.64 233.74C207.2 232.9 207.76 231.92 208.18 230.94C208.46 230.1 208.74 229.26 209.16 228.42C209.3 228.28 209.44 228 209.3 228C209.16 227.72 209.02 228 208.88 228C208.04 228 207.48 228 206.78 228.28C206.08 228.56 205.38 228.56 204.82 228.84C204.12 228.84 203.42 228.98 202.72 229.12L200.9 229.96C200.62 230.1 200.62 230.1 200.48 230.1C200.2 230.1 199.92 230.1 199.64 230.24C198.94 230.24 198.38 230.52 197.54 230.66C196.84 230.94 195.86 231.22 195.16 231.92C194.88 232.2 194.32 231.92 194.32 231.64V231.36C194.6 231.22 194.74 230.8 195.02 230.52C195.44 230.1 195.72 229.68 196 229.12C196.56 228.56 196.98 228 197.4 227.44C197.82 226.88 198.38 226.46 198.66 225.9C199.5 225.2 200.06 224.36 200.76 223.52C201.18 222.82 201.74 222.26 202.16 221.7C202.58 221.14 202.86 220.58 203.28 220.16L204.96 217.92C205.38 217.36 205.8 216.94 206.22 216.52C206.78 215.68 207.48 215.12 207.9 214.28C207.9 214.28 208.04 214.28 208.04 214.14C208.32 213.86 208.46 213.58 208.6 213.16C208.88 212.46 209.44 211.76 209.86 210.92C210.56 209.94 211.4 208.96 211.96 207.84C212.38 206.86 212.8 206.02 213.08 205.18C213.22 204.9 213.36 204.76 213.36 204.48C212.8 204.48 212.24 204.48 211.82 204.34C210.7 204.34 209.44 204.2 208.32 204.34C207.9 204.34 207.48 204.48 207.2 204.48C205.66 204.76 204.12 205.18 202.72 205.74C202.16 205.88 201.74 206.02 201.18 206.3C200.9 206.58 200.62 206.44 200.62 206.16C200.48 206.02 200.48 205.74 200.76 205.6C200.9 205.6 200.9 205.46 200.9 205.46C201.46 204.9 202.16 204.48 202.3 203.64C202.3 203.5 202.44 203.36 202.58 203.22C202.72 203.22 202.86 203.22 202.72 203.08C202.58 202.94 202.58 203.08 202.58 203.08L201.04 204.9C200.9 205.18 200.9 205.32 200.62 205.46C200.06 205.46 199.78 206.02 199.5 206.3C199.22 206.44 199.22 206.58 199.08 206.72C198.94 206.86 198.8 206.86 198.94 207C198.94 207.14 199.08 207.14 199.22 207.14L200.62 206.72C201.18 206.58 201.88 206.3 202.58 206.16C203.14 206.02 203.7 205.74 204.4 205.88H204.54C205.1 205.88 205.52 205.74 205.94 205.74C206.92 205.74 207.9 205.46 208.88 205.32C209.3 205.32 209.72 205.18 210 205.04C210.28 204.9 210.56 205.18 210.56 205.46C210.42 205.88 210.28 206.3 210 206.58C210 206.58 210 206.72 209.86 206.72C209.72 206.86 209.72 206.86 209.58 206.58C209.58 206.58 209.58 206.44 209.72 206.44C209.72 206.3 209.86 206.3 209.86 206.3C210 206.3 210 206.16 210 206.02C210 206.02 209.86 206.02 209.72 206.02H209.44C208.74 206.3 208.18 206.3 207.62 206.3H207.06C206.5 206.44 205.94 206.58 205.38 206.58C204.26 206.58 203.28 206.86 202.16 207.14C201.88 207.14 201.6 207.28 201.32 207.42C200.62 207.56 199.78 207.7 198.94 207.98C198.8 208.12 198.66 207.98 198.52 207.98C198.52 207.84 198.52 207.7 198.38 207.7C198.24 207.84 198.24 207.98 198.1 207.98C197.96 208.4 197.96 208.4 197.54 207.98C197.4 207.7 197.4 207.7 197.54 207.42C198.1 206.86 198.38 206.3 198.94 205.88V205.74C198.94 205.46 199.22 205.32 199.36 205.32C199.78 205.18 200.06 204.9 200.34 204.62C200.62 204.34 200.9 204.06 201.04 203.64C201.18 203.5 201.18 203.22 201.46 203.08C201.74 202.8 202.02 202.38 202.44 202.1C202.58 201.96 202.86 201.82 202.86 201.54C203.14 201.12 203.42 200.7 203.98 200.28L204.4 199.72C204.68 199.16 204.82 198.6 205.24 198.18C205.38 198.18 205.38 198.18 205.38 198.04C205.52 197.76 205.8 197.34 206.08 196.92L207.62 194.4C207.9 193.84 208.18 193.42 208.6 192.86C209.02 192.3 209.58 191.6 209.86 190.9C210.14 190.34 210.56 189.78 210.84 189.22L212.24 186.7C212.38 186.56 212.52 186.42 212.52 186.28C212.38 186.28 212.24 186.42 212.24 186.42C211.82 186.84 211.26 187.26 210.7 187.54C210.56 187.82 210.28 187.96 210 188.1C209.86 188.1 209.72 188.24 209.86 188.38C209.72 188.38 209.58 188.38 209.44 188.52C209.16 188.8 209.02 189.08 208.74 189.22L208.04 190.06C208.04 190.06 208.04 190.2 208.18 190.2C208.18 190.2 208.32 190.2 208.32 190.06L209.72 188.66C209.72 188.66 209.72 188.38 209.86 188.38ZM195.58 239.2C195.3 239.34 194.88 239.34 194.6 239.34C193.48 239.48 192.36 239.62 191.24 239.62C190.82 239.62 190.26 239.76 189.84 239.9C189.14 240.04 188.44 240.32 187.74 240.46C186.76 240.74 185.78 241.16 184.94 241.44C184.24 241.72 183.68 242.14 182.98 242.28L180.6 243.12C180.04 243.26 179.76 243.54 179.34 243.68C178.64 244.1 178.08 244.52 177.52 245.08C177.38 245.36 177.24 245.5 177.1 245.64C176.96 245.92 176.4 245.92 176.26 245.78C176.12 245.64 176.12 245.36 176.4 245.08C177.24 244.24 177.8 243.26 178.5 242.28C178.78 242 179.06 241.58 179.34 241.16C179.9 240.46 180.46 239.76 181.02 239.06L181.58 238.22C182 237.66 182.42 237.38 182.98 236.82C183.26 236.54 183.54 236.26 183.68 235.98C183.96 235.42 184.38 234.86 184.8 234.3C185.36 233.46 186.06 232.76 186.62 231.92C186.76 231.64 186.9 231.5 187.04 231.36L188.58 229.26C189.14 228.42 189.7 227.44 190.4 226.6C190.82 226.04 191.24 225.48 191.66 224.92L193.76 222.54C194.88 221.14 196 219.74 197.26 218.48C197.82 217.78 198.38 217.22 198.94 216.66C199.5 216.24 199.92 215.68 200.34 215.12C200.9 214.42 201.46 213.72 202.16 213.16C203.14 212.32 203.98 211.48 204.82 210.64C205.8 209.66 206.5 208.68 207.48 207.84C207.48 207.7 207.76 207.7 207.62 207.56C207.48 207.42 207.48 207.42 207.2 207.42C207.2 207.42 207.2 207.56 207.06 207.56C206.92 207.7 206.64 207.7 206.5 207.84C205.8 208.26 205.1 208.68 204.54 209.1C204.12 209.38 203.7 209.8 203.14 209.8L203 209.94C202.44 210.22 201.74 210.36 201.32 210.64C201.32 210.78 201.18 210.78 201.18 210.78L198.8 211.2C198.38 211.2 198.1 211.34 197.82 211.48C197.4 211.76 197.12 211.76 196.7 211.9C195.86 212.18 194.88 212.32 194.04 212.46C193.34 212.6 192.64 212.6 192.08 212.88H191.66C191.1 212.88 190.4 212.74 189.84 212.6C189.14 212.6 188.58 212.32 187.74 212.32C187.46 212.32 187.18 212.04 187.18 211.9C187.04 211.62 187.18 211.48 187.32 211.48C187.46 211.34 187.6 211.2 187.74 211.2C188.44 210.36 189.42 209.8 190.12 209.1C190.4 208.96 190.68 208.82 190.96 208.54C191.52 207.84 192.36 207.14 193.06 206.44C193.62 206.02 194.04 205.74 194.46 205.18C194.6 204.9 194.74 204.76 194.88 204.62C195.44 204.2 196 203.78 196.42 203.22C197.12 202.8 197.54 202.1 198.1 201.4L199.78 199.44C200.62 198.32 201.46 197.34 202.58 196.36C203.84 195.1 205.1 193.84 206.08 192.44C206.22 192.3 206.36 192.3 206.22 192.16C205.66 192.58 205.38 193 204.82 193.42L204.4 193.84C203.84 194.12 203.28 194.68 202.86 195.1C202.02 195.94 201.32 196.92 200.48 197.62C199.92 198.32 199.22 198.74 198.52 199.16C198.1 199.58 197.68 199.72 197.4 200.14C196.14 201.4 194.6 202.38 193.2 203.78L192.36 204.62C191.94 205.04 191.52 205.46 190.96 205.88C190.12 206.58 189.42 207.42 188.58 208.12C188.3 208.4 188.02 208.68 187.74 208.82C186.9 209.52 186.34 210.22 185.64 210.92C185.22 211.2 185.08 211.62 184.66 211.9C184.24 212.32 183.68 212.88 183.26 213.58C182.98 214 182.7 214.7 182.14 215.12V215.4C182.14 215.68 182.14 215.96 181.86 216.1C181.72 216.24 181.58 216.24 181.58 216.38C181.44 216.52 181.3 216.52 181.44 216.66C181.44 216.8 181.58 216.66 181.58 216.66C182.14 216.52 182.42 216.38 182.84 216.24C183.68 216.1 184.38 215.82 185.22 215.68H185.5C185.64 215.68 185.78 215.54 186.06 215.54C186.48 215.54 186.9 215.4 187.18 215.12H187.46C188.3 215.12 188.86 214.84 189.56 214.84H190.82C191.52 214.7 192.36 214.7 192.92 214.42L194.74 214C195.02 213.86 195.44 213.86 195.72 214C195.72 214 196 214 196 213.86C195.72 213.58 195.44 213.58 195.16 213.44C195.16 213.3 195.02 213.3 195.02 213.16C195.16 213.02 195.16 213.02 195.3 213.02L196.14 213.44C196.56 213.58 196.98 213.72 197.4 213.72C197.54 213.72 197.54 213.86 197.54 214C197.68 214.28 197.4 214.7 197.54 215.12C197.4 215.12 197.4 214.84 197.4 214.84C197.4 214.7 197.4 214.56 197.26 214.56C197.12 214.56 197.12 214.56 196.98 214.7C196.84 214.98 196.56 215.4 196.56 215.68C196.28 216.1 196.14 216.52 195.86 216.8C195.72 216.94 195.44 217.22 195.44 217.5C195.44 217.64 195.16 217.78 195.16 217.92C194.74 218.2 194.46 218.48 194.32 218.9C194.32 219.18 194.32 219.18 194.04 219.18C193.9 219.18 193.76 219.46 193.62 219.46C193.2 219.88 192.92 220.3 192.36 220.72L191.52 221.42C191.24 221.84 190.96 222.54 190.54 222.82C190.4 222.82 190.4 222.96 190.4 222.96C190.4 223.1 190.26 223.24 190.12 223.38C189.98 223.52 189.84 223.66 189.84 223.8C189.84 223.94 189.7 224.22 189.56 224.22C189.42 224.36 189.42 224.5 189.28 224.5C189 225.06 188.58 225.62 188.16 226.04C187.74 226.74 187.18 227.3 186.62 227.86L184.94 229.4C184.38 230.24 183.82 230.94 183.12 231.64C182.84 232.06 182.42 232.48 182.28 232.76C182 233.18 181.86 233.46 181.58 233.74C181.3 234.02 181.02 234.44 180.74 234.86C180.6 235 180.6 235.28 180.32 235.42C180.04 235.7 180.04 235.98 179.76 236.26V236.4C179.34 236.82 179.06 237.38 178.64 237.66C178.36 237.66 178.36 237.94 178.36 237.94C177.52 238.78 176.54 239.62 175.84 240.6L174.16 242.7C173.88 243.12 173.6 243.54 173.18 243.96C172.48 244.66 171.92 245.5 171.22 246.34C171.08 246.62 170.8 246.9 170.66 247.32C170.66 247.32 170.52 247.46 170.52 247.6C170.66 247.74 170.8 247.6 170.94 247.6C171.64 247.6 172.34 247.46 173.18 247.32C173.6 247.32 173.88 247.18 174.16 247.04C174.72 247.04 175.28 247.04 175.84 246.76C176.4 246.62 176.96 246.48 177.38 246.2C177.8 246.06 178.22 245.92 178.64 245.92H178.92C179.2 245.78 179.48 245.64 179.76 245.64C180.32 245.5 180.88 245.36 181.44 245.08C182 244.8 182.42 244.52 183.12 244.38H183.26C183.82 244.1 184.38 243.96 184.8 243.96C185.78 243.82 186.62 243.4 187.6 243.26H187.74C188.02 243.12 188.16 243.26 188.16 243.4C188.3 243.68 188.3 243.68 188.58 243.82C189 243.96 189 244.24 188.86 244.52C188.44 245.08 188.3 245.64 188.02 246.2L187.18 247.88C186.9 248.58 186.34 249.42 186.06 250.26L185.64 251.1C185.22 251.66 184.94 252.36 184.38 253.06C184.1 253.62 183.68 254.18 183.26 254.74C182.98 255.3 182.7 255.58 182.42 256.14C181.86 256.7 181.44 257.4 181.02 257.96C180.32 258.94 179.48 259.92 178.92 260.9C178.36 261.88 177.66 262.72 176.96 263.7C176.68 264.26 176.12 264.82 175.84 265.38C175.56 265.8 175.28 266.08 175 266.5L173.6 268.6C173.46 269.02 173.32 269.3 173.04 269.72L172.48 270.7C172.34 270.84 172.34 270.98 172.34 271.12C172.62 271.12 172.62 270.98 172.62 270.84L174.44 268.32C175 267.76 175.28 267.2 175.84 266.64C176.26 266.08 176.68 265.52 176.96 264.96C177.52 264.4 177.94 263.7 178.5 263C179.48 261.88 180.32 260.62 181.16 259.36C181.16 259.22 181.44 259.08 181.44 258.94C181.86 258.52 182.14 257.96 182.56 257.4C182.98 256.84 183.26 256.28 183.68 255.86C184.24 255.02 184.8 254.46 185.5 253.76C186.06 253.06 186.62 252.36 187.04 251.66C187.18 251.38 187.18 251.38 187.46 251.24C188.58 250.12 189.42 248.86 190.12 247.46C190.54 246.76 190.96 246.2 191.38 245.64C191.8 245.08 192.36 244.38 192.78 243.68L193.48 242.56C194.18 241.58 194.88 240.6 195.58 239.48C195.58 239.34 195.72 239.34 195.58 239.2ZM208.6 230.52L208.32 230.8C208.6 230.8 208.6 230.52 208.6 230.52ZM202.72 236.54C202.86 236.54 202.86 236.4 202.86 236.4C202.86 236.26 202.86 236.26 202.72 236.26C202.72 236.26 202.58 236.26 202.72 236.4V236.54ZM171.22 273.5C171.22 273.5 171.36 273.36 171.36 273.22C171.36 273.22 171.36 273.08 171.22 273.08C171.22 273.08 171.22 273.22 171.08 273.36L171.22 273.5ZM281.485 265.66L280.365 264.12C280.365 263.98 280.225 263.84 280.225 263.7C279.385 262.86 278.545 262.16 277.565 261.46C277.285 261.18 276.865 260.9 276.445 260.76C276.025 260.62 275.465 260.34 275.045 260.06C274.345 259.64 273.505 259.5 272.805 259.5H271.685C270.705 259.36 269.725 259.64 268.745 260.06L268.045 260.48C267.485 260.76 266.925 261.18 266.505 261.74C265.805 262.3 265.245 263 264.685 263.7C263.845 264.96 263.565 266.36 263.425 267.76C263.425 268.04 263.425 268.32 263.425 268.6L263.845 270.98C264.265 272.1 264.965 272.94 265.805 273.64C267.065 274.76 268.465 275.46 269.865 276.16C270.845 276.58 271.825 276.72 272.805 276.58C273.225 276.44 273.645 276.3 274.065 276.3C274.345 276.3 274.765 276.16 275.185 276.02C275.885 275.74 276.725 275.46 277.425 275.04C277.705 274.76 277.985 274.48 278.405 274.34C278.685 274.2 278.965 273.92 279.245 273.64C279.945 273.08 280.505 272.38 280.925 271.68C281.205 271.4 281.345 270.98 281.485 270.56L281.905 268.04C282.045 267.2 281.905 266.36 281.485 265.66ZM281.485 267.9C281.485 268.6 281.345 269.3 281.205 269.86C281.065 270 281.065 270 281.065 270.14C281.065 270.7 280.785 271.26 280.505 271.68L279.385 272.94C279.105 273.36 278.685 273.78 278.125 274.06C277.565 274.2 277.145 274.62 276.725 274.9C275.885 275.46 274.905 275.74 273.925 275.88H273.645C273.085 276.16 272.385 276.16 271.825 276.16C270.985 276.16 270.285 275.88 269.445 275.46C269.025 275.18 268.465 274.9 267.905 274.62C267.065 274.2 266.365 273.64 265.665 272.94C264.825 272.1 264.265 271.12 264.125 269.86C263.985 269.44 263.845 269.02 263.845 268.6C263.845 268.04 263.845 267.62 263.985 267.2C263.985 265.94 264.405 264.82 265.105 263.84L265.385 263.42C265.805 263.14 266.085 262.72 266.365 262.44C266.785 261.74 267.485 261.32 268.045 260.9C268.325 260.76 268.605 260.62 268.745 260.48C269.305 260.2 269.865 260.06 270.425 259.92C271.405 259.78 272.525 259.92 273.505 260.06C274.065 260.06 274.625 260.34 275.045 260.62C275.325 260.76 275.465 260.76 275.605 260.9C276.445 261.18 277.145 261.6 277.845 262.16C278.545 262.72 279.245 263.42 279.805 264.12C279.945 264.12 279.945 264.26 280.085 264.26C280.365 264.82 280.785 265.24 281.065 265.8C281.485 266.5 281.625 267.2 281.485 267.9ZM277.285 262.86C276.165 262.02 274.905 261.6 273.505 261.32C273.085 261.32 272.665 261.18 272.245 261.32C271.545 261.46 270.845 261.46 270.145 261.6C269.725 261.6 269.305 261.6 269.025 261.74C268.465 262.02 268.045 262.3 267.765 262.72C267.625 262.86 267.625 263 267.485 263C267.205 263.28 266.925 263.56 266.785 263.98L266.365 264.82C266.085 265.24 265.945 265.66 265.805 266.22C265.805 266.5 265.665 266.92 265.665 267.34C265.525 267.9 265.525 268.46 265.665 269.02V269.3C265.665 269.86 265.805 270.28 265.805 270.84C265.945 271.54 266.225 272.1 266.645 272.66C267.345 273.36 268.185 274.06 269.165 274.48C270.285 274.9 271.405 275.04 272.665 275.04C273.085 275.04 273.505 275.04 273.925 274.9C274.205 274.9 274.485 274.9 274.765 274.76C274.905 274.76 275.045 274.62 275.185 274.62C275.745 274.62 276.305 274.34 276.725 274.06L278.405 272.66C278.825 272.1 279.385 271.4 279.665 270.7C279.945 270 279.945 269.16 280.085 268.32V267.62C279.945 266.64 279.665 265.66 279.105 264.82C278.545 264.12 277.985 263.42 277.285 262.86ZM279.525 269.16C279.525 269.44 279.385 269.72 279.385 270C279.245 270.98 278.685 271.68 277.985 272.38L277.565 272.8C277.705 272.38 277.985 271.96 278.265 271.54C278.545 270.98 278.545 271.12 278.125 270.7C277.425 270.28 276.865 269.86 276.165 269.44H276.025C275.885 269.3 275.745 269.44 275.745 269.58C275.745 269.72 275.745 269.86 275.745 270L274.905 270.84C274.765 271.12 274.765 271.26 274.905 271.4C275.745 271.82 276.585 272.38 277.425 272.94C276.865 273.36 276.445 273.92 275.745 274.06C275.605 274.2 275.465 274.2 275.325 274.2C274.905 274.2 274.905 274.2 274.765 273.92L274.345 272.38C274.345 272.24 274.205 272.24 274.345 272.1C274.485 271.96 274.345 271.96 274.345 271.82C274.205 271.82 274.065 271.68 273.785 271.68C273.645 271.54 273.645 271.68 273.645 271.82C273.785 272.1 273.645 272.1 273.365 272.1C273.085 272.24 272.805 272.38 272.665 272.52C272.385 272.52 272.245 272.66 272.385 272.94C272.665 273.36 272.805 273.92 272.945 274.34C272.945 274.62 272.945 274.62 272.665 274.62H271.405C271.545 274.34 271.685 274.06 271.685 273.78C271.965 273.36 271.965 272.94 272.105 272.52C272.105 272.38 272.105 272.38 271.965 272.24L270.985 271.82C270.845 271.68 270.705 271.68 270.705 271.54C270.705 271.26 270.565 271.4 270.425 271.4C270.285 271.4 270.145 271.4 270.145 271.68C270.145 271.82 270.005 271.96 269.865 272.1C269.725 272.38 269.445 272.66 269.165 272.94C269.025 273.08 269.025 273.22 269.165 273.36C269.445 273.64 269.725 273.92 270.005 274.34C268.885 273.92 267.765 273.22 267.065 272.24C267.065 272.1 267.205 272.1 267.485 272.1C267.905 271.96 268.465 271.68 268.885 271.4H269.165C269.445 271.12 269.445 271.12 269.305 270.84C269.305 270.42 269.165 270 269.025 269.58V269.3C269.025 269.16 269.025 268.88 268.745 268.88C268.605 268.74 268.465 268.74 268.465 268.88C268.465 269.16 268.185 269.16 268.045 269.16L266.925 269.58C266.645 269.72 266.645 269.72 266.645 270C266.645 270.56 266.645 271.26 266.785 271.82C266.505 271.54 266.365 271.26 266.365 270.98C266.225 270.56 266.085 270 266.085 269.58V268.74C265.805 268.04 266.085 267.48 266.225 266.78C266.505 266.92 266.645 267.06 266.925 267.34L268.325 268.18C268.605 268.32 268.605 268.32 268.745 268.04C268.745 267.9 268.885 267.76 268.885 267.62C269.305 267.34 269.445 266.78 269.725 266.36V266.08C269.725 265.94 269.725 265.94 269.585 265.8C269.305 265.8 269.165 265.52 269.025 265.38L267.905 264.68C267.625 264.68 267.625 264.68 267.485 264.82C267.205 265.1 266.925 265.38 266.645 265.66H266.505C266.365 265.66 266.505 265.52 266.505 265.52C266.785 264.96 267.065 264.4 267.345 263.84V263.7C267.905 263.14 268.465 262.58 269.165 262.16C269.445 262.02 269.445 262.16 269.445 262.44C269.445 262.72 269.585 263 269.725 263.42C269.865 263.7 270.005 264.12 270.005 264.54C270.145 264.82 270.145 264.96 270.565 264.82C270.985 264.82 271.405 264.82 271.825 264.68C271.965 264.68 272.245 264.68 272.385 264.54C272.665 264.54 272.665 264.54 272.665 264.26L272.245 262.16C272.245 262.02 272.245 261.88 272.105 261.74H272.245C272.945 261.74 273.785 261.74 274.485 262.02C274.625 262.16 274.765 262.16 274.625 262.44C274.205 263.28 273.645 263.98 273.505 264.96C273.365 265.24 273.505 265.38 273.645 265.52C274.205 265.52 274.625 265.8 275.045 265.94C275.325 266.08 275.325 266.08 275.465 265.8C275.605 265.66 275.745 265.38 275.885 265.1L276.725 263.7C276.865 263.42 276.725 263.28 276.585 263.14C276.305 263 276.165 262.72 275.885 262.58C276.445 262.72 276.865 263 277.285 263.42C277.985 263.98 278.545 264.82 279.105 265.66C279.385 266.22 279.525 266.78 279.665 267.34C279.805 268.04 279.665 268.6 279.525 269.16ZM270.285 262.16C270.705 262.16 270.985 262.16 271.265 262.02C271.825 262.02 271.825 262.02 271.825 262.44C271.965 262.86 271.965 263.28 272.105 263.84V263.98C272.105 264.12 272.105 264.26 271.965 264.26C271.545 264.4 271.125 264.4 270.705 264.4C270.565 264.54 270.425 264.4 270.425 264.26C270.285 263.84 270.145 263.28 270.005 262.86V262.72C269.865 262.3 269.865 262.3 270.285 262.16ZM275.045 262.58L276.165 263.42C276.165 263.42 276.305 263.56 276.165 263.7C275.885 264.26 275.605 264.82 275.185 265.38C275.185 265.52 275.045 265.52 274.905 265.52C274.625 265.38 274.345 265.1 274.065 265.1C273.925 265.1 273.925 264.96 273.925 264.96C274.065 264.54 274.205 264.12 274.485 263.7C274.485 263.56 274.625 263.28 274.765 263.14C274.765 262.86 274.905 262.72 275.045 262.58ZM266.645 266.08C266.925 265.8 267.205 265.52 267.625 265.24C267.625 265.1 267.765 265.1 267.905 265.24C268.325 265.52 268.745 265.8 269.165 266.22C269.305 266.22 269.305 266.22 269.305 266.36C269.025 266.78 268.745 267.34 268.325 267.76L266.645 266.5C266.365 266.36 266.365 266.36 266.645 266.08ZM278.825 265.8C278.825 265.52 278.685 265.52 278.405 265.66C278.265 265.8 277.985 265.8 277.705 265.94C277.145 266.08 276.585 266.36 275.885 266.5C275.605 266.64 275.465 266.78 275.605 267.2C275.745 267.62 276.025 268.04 276.025 268.6C276.025 268.88 276.165 268.88 276.445 268.74C276.585 268.74 276.725 268.74 277.005 268.74L277.985 268.6C278.405 268.46 278.685 268.32 279.105 268.32C279.245 268.32 279.245 268.18 279.245 268.04C279.245 267.48 279.105 267.06 279.105 266.5L278.825 265.8ZM278.685 267.9C278.405 268.04 277.985 268.04 277.705 268.18C277.285 268.32 277.005 268.18 276.585 268.32C276.585 268.32 276.445 268.32 276.445 268.18C276.445 267.9 276.165 267.62 276.165 267.34C276.025 266.92 276.025 266.92 276.305 266.92L278.405 266.08C278.545 266.08 278.545 266.08 278.685 266.22C278.685 266.78 278.685 267.2 278.825 267.62C278.825 267.76 278.825 267.9 278.685 267.9ZM274.065 266.92C273.785 266.78 273.645 266.64 273.505 266.64C273.365 266.36 273.085 266.36 272.945 266.36C272.665 266.22 272.245 266.22 271.965 266.22H271.545C270.705 266.5 270.145 267.06 270.005 267.9C269.865 268.32 269.865 268.6 270.005 269.02V269.44C270.145 270 270.565 270.42 270.985 270.98C271.405 271.12 271.825 271.4 272.245 271.26C272.525 271.4 272.805 271.12 273.085 271.12C273.365 271.12 273.645 270.98 273.925 270.84C274.345 270.56 274.765 270.14 274.905 269.58C275.185 269.16 275.185 268.88 275.045 268.46C274.905 267.76 274.625 267.2 274.065 266.92ZM274.625 269.16C274.485 269.58 274.345 269.86 274.065 270.14C273.925 270.28 273.785 270.42 273.645 270.42C273.505 270.56 273.365 270.7 273.085 270.7C272.805 270.7 272.525 270.98 272.245 270.84C271.825 270.98 271.545 270.7 271.265 270.7L271.125 270.56C270.985 270.42 270.985 270.28 270.985 270.28C270.425 269.86 270.285 269.16 270.285 268.6C270.285 268.04 270.425 267.48 270.985 267.06L271.265 266.78C271.545 266.64 271.825 266.5 272.105 266.64H272.385C272.805 266.64 273.225 266.78 273.645 267.2H273.785C274.345 267.48 274.485 268.04 274.625 268.6C274.765 268.74 274.765 269.02 274.625 269.16ZM272.805 267.9C272.665 267.62 272.525 267.62 272.385 267.62C271.825 267.62 271.405 267.9 271.265 268.32C271.265 268.74 271.685 269.44 271.965 269.58C272.245 269.72 272.385 269.72 272.665 269.58C273.225 269.16 273.505 268.46 272.805 267.9ZM272.525 269.3C272.245 269.3 272.105 269.16 271.965 269.02C271.825 268.88 271.825 268.88 271.825 268.74C271.685 268.46 271.685 268.18 271.965 268.04C272.245 267.9 272.525 268.04 272.665 268.32C272.805 268.46 272.805 268.6 272.805 268.74C272.805 268.88 272.665 269.16 272.525 269.3ZM276.305 269.16C276.305 269.3 276.305 269.3 276.445 269.3C276.445 269.3 276.585 269.3 276.585 269.16H276.445C276.305 269.02 276.305 269.16 276.305 269.16ZM266.925 270.28C266.925 270 267.065 270 267.205 269.86C267.625 269.72 268.045 269.72 268.465 269.58C268.605 269.58 268.605 269.58 268.605 269.72C268.745 270 268.745 270.42 268.885 270.7C269.025 270.84 269.025 270.98 268.885 270.98C268.325 271.26 267.905 271.54 267.345 271.68C267.205 271.68 267.065 271.68 267.065 271.54C267.065 271.12 267.065 270.84 266.925 270.42C266.925 270.42 267.065 270.28 266.925 270.28ZM277.285 272.38C276.585 271.96 276.025 271.54 275.465 270.98L276.025 270.14C276.165 270 276.165 270 276.305 270.14C276.865 270.42 277.425 270.7 277.845 271.12C277.845 271.12 277.845 271.12 277.985 271.12L277.285 272.38ZM270.845 274.34C270.565 274.2 270.425 274.06 270.145 273.78L269.725 273.36C269.585 273.22 269.585 273.08 269.725 272.94C270.005 272.66 270.285 272.52 270.425 272.1H270.705C270.985 272.24 271.265 272.38 271.545 272.52V272.8C271.545 273.22 271.265 273.78 271.125 274.2C271.125 274.34 270.985 274.34 270.845 274.34ZM273.505 274.34C273.365 274.48 273.365 274.48 273.365 274.34L272.945 272.94C272.805 272.94 272.805 272.8 272.945 272.8L273.925 272.38C274.065 273.08 274.205 273.64 274.485 274.2C274.065 274.2 273.785 274.34 273.505 274.34Z" fill="black"/>
<path d="M52.7585 62H58.6562V60.4787H54.6037V58.3949H58.3366V56.8736H54.6037V54.794H58.6392V53.2727H52.7585V62ZM60.1062 62H65.6928V60.4787H61.9513V53.2727H60.1062V62ZM66.9148 62H72.8125V60.4787H68.7599V58.3949H72.4929V56.8736H68.7599V54.794H72.7955V53.2727H66.9148V62ZM75.7667 62L76.4144 60.0099H79.5636L80.2113 62H82.1886L79.18 53.2727H76.8022L73.7894 62H75.7667ZM76.8832 58.5696L77.957 55.267H78.0252L79.0991 58.5696H76.8832ZM90.5387 53.2727H88.7021V58.7614H88.6254L84.8583 53.2727H83.239V62H85.0842V56.5071H85.1481L88.945 62H90.5387V53.2727ZM100.083 57.6364C100.083 54.7812 98.3104 53.1534 95.9964 53.1534C93.6697 53.1534 91.9098 54.7812 91.9098 57.6364C91.9098 60.4787 93.6697 62.1193 95.9964 62.1193C98.3104 62.1193 100.083 60.4915 100.083 57.6364ZM98.2124 57.6364C98.2124 59.4858 97.3345 60.4872 95.9964 60.4872C94.6541 60.4872 93.7805 59.4858 93.7805 57.6364C93.7805 55.7869 94.6541 54.7855 95.9964 54.7855C97.3345 54.7855 98.2124 55.7869 98.2124 57.6364ZM101.45 62H103.295V58.9062H104.642L106.295 62H108.332L106.478 58.608C107.471 58.1818 108.021 57.3168 108.021 56.1236C108.021 54.3892 106.875 53.2727 104.893 53.2727H101.45V62ZM103.295 57.4233V54.7812H104.539C105.605 54.7812 106.12 55.2543 106.12 56.1236C106.12 56.9886 105.605 57.4233 104.548 57.4233H103.295ZM115.848 53.2727H114.114L111.953 54.6406V56.277L113.952 55.0241H114.003V62H115.848V53.2727ZM122.708 55.7827H124.476C124.451 54.2273 123.172 53.1534 121.229 53.1534C119.316 53.1534 117.914 54.2102 117.922 55.7955C117.918 57.0824 118.826 57.8196 120.3 58.1733L121.25 58.4119C122.201 58.642 122.729 58.9148 122.733 59.5028C122.729 60.142 122.124 60.5767 121.186 60.5767C120.228 60.5767 119.537 60.1335 119.478 59.2599H117.692C117.739 61.1477 119.09 62.1236 121.208 62.1236C123.338 62.1236 124.591 61.1051 124.596 59.5071C124.591 58.054 123.496 57.2827 121.979 56.9418L121.195 56.7543C120.436 56.5795 119.801 56.2983 119.814 55.6719C119.814 55.1094 120.313 54.696 121.216 54.696C122.098 54.696 122.64 55.0966 122.708 55.7827ZM125.504 54.794H128.176V62H130V54.794H132.672V53.2727H125.504V54.794Z" fill="#7E7E7E"/>
<path d="M60.5781 73.348H62.483C62.4254 71.2514 60.5717 69.7301 57.9126 69.7301C55.2855 69.7301 53.272 71.2322 53.272 73.4886C53.272 75.3104 54.576 76.3778 56.679 76.9467L58.2259 77.3686C59.6257 77.7393 60.706 78.1996 60.706 79.3629C60.706 80.6413 59.4851 81.4851 57.804 81.4851C56.2827 81.4851 55.017 80.8075 54.902 79.3821H52.9205C53.0483 81.7536 54.8828 83.2173 57.8168 83.2173C60.8913 83.2173 62.6619 81.6001 62.6619 79.3821C62.6619 77.0234 60.5589 76.1094 58.897 75.7003L57.6186 75.3679C56.5959 75.1058 55.2344 74.6264 55.2408 73.3736C55.2408 72.2614 56.2571 71.4368 57.8679 71.4368C59.37 71.4368 60.4375 72.1399 60.5781 73.348ZM66.0769 86.6562C67.6557 86.6562 68.6593 85.8317 69.2218 84.3104L73.2807 73.201L71.2161 73.1818L68.7296 80.8011H68.6273L66.1408 73.1818H64.0953L67.6877 83.1278L67.4512 83.7798C66.9654 85.0518 66.2814 85.1669 65.2331 84.8793L64.7729 86.4453C65.003 86.554 65.5016 86.6562 66.0769 86.6562ZM75.0817 83H76.9929V76.9467C76.9929 75.6236 77.9197 74.7031 79.0064 74.7031C80.0675 74.7031 80.8026 75.4062 80.8026 76.4737V83H82.7074V76.7422C82.7074 75.5597 83.4297 74.7031 84.6761 74.7031C85.6861 74.7031 86.517 75.2656 86.517 76.5952V83H88.4283V76.4162C88.4283 74.1726 87.1754 73.054 85.3984 73.054C83.9858 73.054 82.9247 73.7315 82.4517 74.7798H82.3494C81.9212 73.706 81.0199 73.054 79.7095 73.054C78.4119 73.054 77.4467 73.6996 77.0376 74.7798H76.9162V73.1818H75.0817V83ZM91.1433 83H93.0098V81.4723H93.1696C93.5147 82.0987 94.2179 83.1918 96.0076 83.1918C98.3855 83.1918 100.111 81.2869 100.111 78.1101C100.111 74.9268 98.3599 73.054 95.9885 73.054C94.1667 73.054 93.5083 74.1662 93.1696 74.7734H93.0545V69.9091H91.1433V83ZM93.0162 78.0909C93.0162 76.0391 93.911 74.6776 95.5794 74.6776C97.3116 74.6776 98.1809 76.1413 98.1809 78.0909C98.1809 80.0597 97.286 81.5618 95.5794 81.5618C93.9366 81.5618 93.0162 80.1555 93.0162 78.0909ZM106.393 83.1982C109.161 83.1982 110.97 81.1719 110.97 78.1357C110.97 75.0803 109.161 73.054 106.393 73.054C103.625 73.054 101.816 75.0803 101.816 78.1357C101.816 81.1719 103.625 83.1982 106.393 83.1982ZM106.4 81.5938C104.591 81.5938 103.747 80.0149 103.747 78.1293C103.747 76.25 104.591 74.652 106.4 74.652C108.196 74.652 109.039 76.25 109.039 78.1293C109.039 80.0149 108.196 81.5938 106.4 81.5938ZM115.014 69.9091H113.103V83H115.014V69.9091ZM124.943 75.5788C124.547 74.0511 123.351 73.054 121.229 73.054C119.011 73.054 117.439 74.2237 117.439 75.9624C117.439 77.3558 118.282 78.2827 120.123 78.6918L121.785 79.0561C122.731 79.267 123.172 79.6889 123.172 80.3026C123.172 81.0632 122.36 81.6577 121.108 81.6577C119.963 81.6577 119.228 81.1655 118.998 80.2003L117.151 80.4815C117.471 82.2202 118.915 83.1982 121.12 83.1982C123.492 83.1982 125.135 81.9389 125.135 80.1619C125.135 78.7749 124.252 77.9183 122.45 77.5028L120.89 77.1449C119.81 76.8892 119.343 76.5249 119.35 75.8601C119.343 75.1058 120.162 74.5689 121.248 74.5689C122.437 74.5689 122.987 75.2273 123.211 75.8857L124.943 75.5788ZM136.985 69.2955H135.279L131.06 84.9688H132.767L136.985 69.2955ZM143.526 83H145.501V78.3977H148.186C151.222 78.3977 152.724 76.5632 152.724 74.147C152.724 71.7372 151.235 69.9091 148.192 69.9091H143.526V83ZM145.501 76.723V71.603H147.981C149.937 71.603 150.736 72.6641 150.736 74.147C150.736 75.63 149.937 76.723 148.007 76.723H145.501ZM161.106 78.9283C161.112 80.5966 159.872 81.3892 158.798 81.3892C157.616 81.3892 156.798 80.5327 156.798 79.1967V73.1818H154.886V79.4268C154.886 81.8622 156.222 83.1278 158.108 83.1278C159.585 83.1278 160.588 82.348 161.042 81.2997H161.144V83H163.023V73.1818H161.106V78.9283ZM167.503 77.1705C167.503 75.6044 168.461 74.7095 169.791 74.7095C171.089 74.7095 171.875 75.5597 171.875 76.9851V83H173.786V76.755C173.786 74.326 172.45 73.054 170.443 73.054C168.966 73.054 168.001 73.7379 167.547 74.7798H167.426V73.1818H165.591V83H167.503V77.1705ZM180.485 83.1982C182.805 83.1982 184.307 81.8047 184.518 79.8935H182.658C182.415 80.9545 181.591 81.581 180.498 81.581C178.881 81.581 177.839 80.2322 177.839 78.0909C177.839 75.9879 178.9 74.6648 180.498 74.6648C181.712 74.6648 182.454 75.4318 182.658 76.3523H184.518C184.314 74.3707 182.697 73.054 180.466 73.054C177.698 73.054 175.908 75.1378 175.908 78.1357C175.908 81.0952 177.634 83.1982 180.485 83.1982ZM191.145 73.1818H189.132V70.8295H187.221V73.1818H185.782V74.7159H187.221V80.5135C187.214 82.2969 188.576 83.1598 190.084 83.1278C190.691 83.1214 191.1 83.0064 191.324 82.9233L190.979 81.3445C190.851 81.37 190.615 81.4276 190.308 81.4276C189.688 81.4276 189.132 81.223 189.132 80.1172V74.7159H191.145V73.1818ZM199.479 78.9283C199.485 80.5966 198.245 81.3892 197.171 81.3892C195.989 81.3892 195.171 80.5327 195.171 79.1967V73.1818H193.259V79.4268C193.259 81.8622 194.595 83.1278 196.481 83.1278C197.958 83.1278 198.961 82.348 199.415 81.2997H199.517V83H201.396V73.1818H199.479V78.9283ZM206.822 83.2173C208.445 83.2173 209.359 82.3928 209.724 81.6577H209.8V83H211.667V76.4801C211.667 73.6229 209.417 73.054 207.857 73.054C206.08 73.054 204.444 73.7699 203.805 75.5597L205.601 75.9688C205.882 75.272 206.598 74.6009 207.883 74.6009C209.116 74.6009 209.749 75.2464 209.749 76.3587V76.4034C209.749 77.1001 209.033 77.0874 207.269 77.2919C205.409 77.5092 203.504 77.995 203.504 80.2259C203.504 82.1562 204.955 83.2173 206.822 83.2173ZM207.237 81.6832C206.157 81.6832 205.377 81.1974 205.377 80.2514C205.377 79.2287 206.285 78.8643 207.391 78.7173C208.011 78.6342 209.481 78.468 209.756 78.1932V79.4588C209.756 80.6222 208.829 81.6832 207.237 81.6832ZM218.796 73.1818H216.782V70.8295H214.871V73.1818H213.433V74.7159H214.871V80.5135C214.865 82.2969 216.226 83.1598 217.735 83.1278C218.342 83.1214 218.751 83.0064 218.975 82.9233L218.629 81.3445C218.502 81.37 218.265 81.4276 217.958 81.4276C217.338 81.4276 216.782 81.223 216.782 80.1172V74.7159H218.796V73.1818ZM220.91 83H222.821V73.1818H220.91V83ZM221.875 71.6669C222.533 71.6669 223.083 71.1555 223.083 70.5291C223.083 69.9027 222.533 69.3849 221.875 69.3849C221.21 69.3849 220.667 69.9027 220.667 70.5291C220.667 71.1555 221.21 71.6669 221.875 71.6669ZM229.528 83.1982C232.296 83.1982 234.105 81.1719 234.105 78.1357C234.105 75.0803 232.296 73.054 229.528 73.054C226.76 73.054 224.951 75.0803 224.951 78.1357C224.951 81.1719 226.76 83.1982 229.528 83.1982ZM229.534 81.5938C227.725 81.5938 226.882 80.0149 226.882 78.1293C226.882 76.25 227.725 74.652 229.534 74.652C231.33 74.652 232.174 76.25 232.174 78.1293C232.174 80.0149 231.33 81.5938 229.534 81.5938ZM238.149 77.1705C238.149 75.6044 239.108 74.7095 240.438 74.7095C241.735 74.7095 242.521 75.5597 242.521 76.9851V83H244.433V76.755C244.433 74.326 243.097 73.054 241.089 73.054C239.613 73.054 238.648 73.7379 238.194 74.7798H238.072V73.1818H236.238V83H238.149V77.1705Z" fill="black"/>
</svg>
