<svg width="1154" height="744" viewBox="0 0 1154 744" fill="none" xmlns="http://www.w3.org/2000/svg">
<path d="M0 0H1154V744H0V0Z" fill="white"/>
<path d="M183.12 263.42H182.7C181.44 264.12 180.04 264.82 178.64 265.52C177.8 265.94 176.82 266.5 175.84 266.92C175.56 267.06 175.28 267.34 175 267.62L172.2 268.88C171.22 269.3 170.38 269.58 169.4 269.86C168.7 270.14 168.14 270.28 167.58 270.42C166.46 270.84 165.34 270.98 164.36 271.4H163.8C163.52 271.12 163.38 271.12 163.52 270.84C163.8 270.14 164.36 269.58 164.64 269.02C165.2 267.9 165.9 267.06 166.46 265.94C166.74 265.38 167.16 264.82 167.58 264.12C168 263.56 168.28 262.86 168.56 262.3C168.98 261.32 169.4 260.2 169.82 259.36C170.1 258.94 170.24 258.52 170.38 258.24C170.66 257.4 171.22 256.84 171.5 256.14L172.62 254.46C173.18 253.76 173.6 253.2 174.3 252.64C174.72 252.22 175.14 251.94 175.56 251.38C175.84 250.82 176.4 250.26 176.96 249.84C177.38 249.28 177.8 248.86 178.08 248.3L180.04 246.34C180.74 245.64 181.44 244.8 181.86 243.96C182.42 242.98 182.98 242 183.68 241.02L184.38 239.9C184.8 239.34 185.22 238.78 185.78 238.22C185.92 238.22 186.06 238.08 186.06 237.94C186.76 237.1 187.46 236.26 188.3 235.56C188.86 235.14 189.14 234.58 189.7 234.02C189.84 233.74 189.98 233.6 190.12 233.46C190.26 233.32 190.4 233.18 190.4 232.9H190.12C189.42 233.18 188.58 233.46 187.74 233.88C187.04 234.3 186.2 234.58 185.36 234.86C184.52 235.14 183.68 235.42 182.7 235.56C181.44 235.84 180.18 236.26 178.92 236.54C178.08 236.54 177.24 236.82 176.4 236.82C175.42 237.1 174.44 237.1 173.46 236.82H172.9C172.62 236.82 172.62 236.82 172.34 236.68C172.2 236.54 172.06 236.26 172.34 235.98L173.04 234.86C173.74 234.3 174.16 233.46 174.86 232.76C175.56 232.06 176.12 231.22 176.96 230.52C177.52 229.96 178.08 229.54 178.64 229.12C179.48 228.42 180.04 227.58 180.74 226.74C181.44 225.9 182.14 224.92 182.84 224.08L184.24 222.26C185.08 221.14 186.06 220.16 186.9 219.18L189.14 217.22C189.7 216.52 190.12 215.82 190.68 214.98C191.24 214.42 191.8 213.86 192.22 213.16C193.06 212.18 194.18 211.48 195.16 210.36C196.42 209.1 197.82 208.12 199.22 206.86C200.06 206.3 200.76 205.46 201.6 204.76C201.74 204.48 202.02 204.34 202.3 204.06C202.86 203.5 203.56 203.08 203.98 202.52C204.26 202.1 204.68 201.82 205.1 201.54C205.8 201.12 206.36 200.42 207.2 199.86C207.76 199.44 208.32 199.02 208.88 198.74L210.56 197.9C211.12 197.62 211.54 197.2 211.96 196.92C212.38 196.5 212.8 196.36 213.08 196.08C213.78 195.66 214.62 195.24 215.46 194.82C215.74 194.68 216.02 194.4 216.44 194.26C216.72 194.12 217 194.12 217.28 194.12C217.42 194.26 217.56 194.4 217.42 194.68C217.28 195.1 217.28 195.52 217.14 195.94C217.14 196.22 217 196.36 217.14 196.64C217.14 196.78 217.14 196.92 217 197.06L216.3 198.32C216.02 198.74 216.02 199.3 215.74 199.86C215.74 200 215.6 200 215.74 200.14C215.74 200.42 215.74 200.56 215.46 200.7C215.18 201.26 214.76 201.54 214.62 202.1C214.34 202.94 213.78 203.5 213.36 204.2C212.8 205.32 211.96 206.3 211.12 207.42C210.56 208.4 210 209.24 209.44 210.08C208.88 210.92 208.04 211.76 207.48 212.6C207.06 212.88 206.92 213.16 206.5 213.58C206.08 214.14 205.52 214.56 205.1 215.26L204.4 216.1C204.26 216.52 203.98 216.94 203.7 217.22C203.14 217.64 202.86 218.06 202.58 218.62V218.9C203 218.9 203.28 218.76 203.56 218.62C204.12 218.34 204.82 218.34 205.52 218.06C206.22 218.06 206.92 217.78 207.76 217.78C208.74 217.5 209.72 217.5 210.84 217.64C211.68 217.78 212.52 217.78 213.36 217.78H213.78C213.92 217.78 214.06 217.78 214.34 218.06C214.34 218.2 214.34 218.34 214.2 218.62C214.06 218.62 214.06 218.9 214.06 219.04C213.5 220.02 213.36 221 212.8 221.98H212.66C212.38 222.82 211.82 223.66 211.26 224.36C210.56 225.48 209.72 226.6 209.16 227.72C208.6 228.84 207.76 229.96 206.92 230.8C206.36 231.22 205.94 231.92 205.52 232.48C204.82 233.32 204.26 234.02 203.7 234.86C202.86 235.84 202.3 236.82 201.6 237.66C201.18 238.22 200.62 238.78 200.2 239.2C199.36 240.32 198.52 241.16 197.82 242.14C197.4 242.56 196.98 243.12 196.56 243.68C196.56 243.82 196.28 243.96 196.28 244.24C196.14 244.24 196 244.24 196.14 244.38C196.28 244.52 196.28 244.52 196.42 244.52C197.12 244.24 197.82 243.96 198.52 243.82C198.94 243.68 199.22 243.68 199.5 243.68C199.78 243.54 200.06 243.54 200.34 243.4C201.18 242.84 202.16 242.56 203.14 242.28C204.12 242 205.1 242 206.08 241.72C206.64 241.58 207.2 241.44 207.76 241.44C208.46 241.16 209.3 241.16 210 241.02C210.28 240.88 210.42 240.88 210.56 241.16V241.72C209.86 242.56 209.44 243.54 209.16 244.52C208.88 245.08 208.74 245.5 208.6 245.92C208.18 246.62 208.04 247.18 207.48 247.88C207.34 248.02 207.2 248.3 206.92 248.44C206.92 248.58 206.92 248.86 206.64 248.86L205.8 250.12C205.66 250.4 205.52 250.82 205.38 250.96C204.96 251.66 204.54 252.36 203.98 253.06C203.28 254.18 202.3 255.16 201.6 256.28L200.06 258.66C199.64 259.08 199.22 259.64 198.94 260.06C198.38 260.76 197.96 261.6 197.4 262.3C197.12 262.86 196.56 263.28 196.28 263.84C195.44 264.82 194.6 265.94 193.9 266.92L192.92 268.18C192.22 268.74 191.66 269.44 191.24 270.14L189.84 271.68C189.42 272.52 188.86 273.22 188.3 273.92C187.46 274.9 186.9 275.88 186.06 276.72C185.92 277 185.78 277.42 185.5 277.7C185.22 278.26 184.8 278.68 184.38 279.1C183.54 280.08 182.56 281.2 181.72 282.32L179.2 285.54C178.5 286.1 177.94 286.94 177.52 287.64C177.24 287.92 176.96 288.06 176.82 288.2C176.4 288.9 175.84 289.32 175.28 290.02C175 290.58 174.3 291 173.74 291.28C173.18 291.7 172.62 292.12 172.06 292.68C171.78 292.96 171.22 293.24 170.8 293.66C170.24 294.08 169.82 294.5 169.4 294.92C168.98 295.34 168.7 295.76 168.14 296.18C167.72 296.6 167.16 297.02 166.46 297.3L164.78 298.14C164.22 298.42 163.8 298.7 163.24 298.84C162.96 298.98 162.68 298.98 162.54 299.26C162.26 299.54 161.56 299.4 161.56 298.98C161.42 298.84 161.56 298.7 161.56 298.7C161.84 298.42 162.12 298.14 162.12 297.86C162.4 297.44 162.82 297.02 163.24 296.74C163.52 296.46 163.52 296.04 163.66 295.62C163.8 294.64 164.08 293.52 164.64 292.68C164.92 291.84 165.2 291 165.62 290.44C166.18 289.6 166.74 288.9 167.3 288.2C167.72 287.78 168.14 287.36 168.42 286.8L168.84 286.24C169.12 285.54 169.54 284.84 169.82 284.14C170.1 283.58 170.38 283.16 170.66 282.74C171.5 281.76 172.2 280.78 172.9 279.94C173.46 278.96 173.88 278.12 174.44 277.28C175 275.88 175.84 274.48 176.96 273.36L178.64 270.84C178.92 270.14 179.48 269.44 180.04 268.74C180.74 267.62 181.44 266.5 182 265.38C182.28 264.82 182.7 264.12 183.12 263.56V263.42ZM170.8 259.36C171.08 259.36 171.22 259.08 171.22 259.08C171.5 258.38 172.06 257.96 172.48 257.4C172.9 257.12 173.18 256.84 173.46 256.28C173.74 255.72 174.16 255.3 174.58 254.74C175 254.32 175.28 253.76 175.84 253.34C176.68 252.5 177.52 251.38 178.5 250.54C178.64 250.54 178.64 250.26 178.78 250.26C178.92 249.98 179.06 249.7 179.2 249.56C179.48 249.42 179.62 249.14 179.76 249C179.9 248.58 180.18 248.16 180.6 247.74C180.88 247.46 181.16 247.18 181.3 246.9C181.44 246.62 181.58 246.34 181.86 246.2C182.7 245.08 183.54 243.96 184.38 242.98C184.38 242.84 184.52 242.84 184.52 242.84C184.94 242.56 185.22 242.28 185.5 242C185.78 241.72 185.92 241.44 186.34 241.16C186.34 241.16 186.34 241.02 186.48 241.02C186.62 240.6 187.04 240.18 187.46 239.9C187.74 239.76 187.74 239.48 188.02 239.2C188.3 238.64 188.86 238.22 189.14 237.52V237.38C189.56 236.96 189.84 236.54 190.12 235.98C190.68 235.42 190.96 234.86 191.52 234.44C192.08 234.02 192.36 233.6 192.92 233.18C193.34 232.9 193.48 232.2 194.04 231.92C194.04 231.92 194.04 231.78 194.18 231.78L194.6 230.94C195.16 230.38 195.72 229.68 196 228.98C196.14 228.7 196.14 228.56 195.72 228.56C195.02 228.7 194.18 228.7 193.48 228.98C192.36 229.4 191.1 229.4 189.84 229.54C189.28 229.68 188.58 229.68 187.74 229.82L186.2 230.24C184.8 230.52 183.54 230.8 182.14 231.22C181.44 231.36 180.88 231.5 180.18 231.5C180.04 231.5 179.76 231.5 179.76 231.22C179.76 231.08 179.76 230.94 179.9 230.8C180.04 230.8 180.04 230.66 180.18 230.66C180.32 230.52 180.46 230.38 180.46 230.24C180.6 229.96 180.88 229.68 180.88 229.4C181.02 229.4 181.02 229.26 181.16 229.12C181.58 228.84 182 228.14 182.42 227.72C182.42 227.44 182.42 227.16 182.7 227.16C183.12 226.6 183.54 226.04 184.1 225.48C184.66 224.92 185.08 224.5 185.5 224.08L186.34 223.1C186.9 222.82 187.32 222.26 187.74 221.84C188.02 221.42 188.58 220.86 189 220.58C189.56 220.16 190.12 219.74 190.68 219.18C191.24 218.62 191.66 218.2 192.08 217.64C192.08 217.5 192.22 217.36 192.36 217.36C192.64 217.22 192.92 216.94 193.2 216.66L193.48 216.38C194.46 215.82 195.3 214.98 196.28 214.28C196.84 213.72 197.12 213.16 197.82 212.74C198.66 212.04 199.5 211.48 200.06 210.78C200.9 210.08 201.6 209.38 202.16 208.54C202.16 208.4 202.3 208.4 202.3 208.4L203.28 207.56C203.7 207.28 204.26 206.86 204.68 206.44L205.66 205.6C206.08 205.32 206.36 205.04 206.64 204.62C207.06 204.2 207.34 203.64 207.76 203.22C208.18 202.66 208.6 202.1 209.16 201.68C209.44 201.54 209.58 201.4 209.72 201.26C209.72 201.12 210 200.98 210.14 200.98C210.42 200.84 210.7 200.7 210.84 200.42C211.12 200.14 211.26 200 211.54 199.86C211.82 199.72 211.96 199.58 212.24 199.3C212.66 198.74 213.22 198.32 213.78 197.76C213.78 197.62 214.06 197.62 214.34 197.9C214.48 198.04 214.48 198.32 214.34 198.46C214.2 198.6 214.06 198.6 214.06 198.74C214.06 199.16 213.78 199.44 213.64 199.86C213.36 200.7 212.94 201.54 212.52 202.24C212.1 202.94 211.68 203.5 211.26 204.34C211.12 204.48 211.12 204.62 210.84 204.9C210.42 205.74 210 206.44 209.44 207L208.6 208.54C208.32 208.96 208.04 209.52 207.62 210.08C207.2 210.92 206.64 211.76 206.08 212.6C205.94 212.6 205.8 212.88 205.8 213.16C206.08 212.88 206.22 212.74 206.36 212.46C206.64 212.04 206.78 211.76 207.2 211.48C207.62 211.06 208.04 210.5 208.46 209.94C209.02 209.24 209.58 208.4 210 207.56C210.7 206.58 211.4 205.74 212.1 204.62C212.52 203.92 213.08 203.22 213.5 202.38C214.06 201.26 214.62 200.14 215.04 199.16C215.32 198.46 215.74 197.76 216.02 197.06C216.3 196.64 216.3 196.08 216.44 195.52C216.44 195.24 216.3 195.24 216.16 195.38C216.02 195.52 215.74 195.52 215.6 195.66L213.08 196.92C212.8 197.2 212.52 197.48 212.24 197.9C212.1 198.04 211.96 198.18 211.82 198.18C211.68 198.18 211.68 198.18 211.54 198.32C210.84 198.6 210 199.02 209.16 199.58C208.88 199.72 208.32 199.86 208.04 200.14C207.62 200.56 207.2 200.98 206.78 201.26C206.36 201.68 205.94 202.1 205.38 202.38C205.1 202.66 204.96 202.8 204.82 202.94L203.98 203.78C203.14 204.48 202.16 205.32 201.32 206.16C200.34 207 199.22 207.84 198.24 208.82C197.4 209.52 196.7 210.08 196 210.92C195.44 211.48 194.88 212.04 194.18 212.46L193.34 213.16C192.5 214 191.66 214.98 190.96 216.1C190.4 216.94 189.84 217.64 189.14 218.2L187.88 219.32C187.32 220.02 186.62 220.58 186.06 221.28C185.5 221.84 185.22 222.4 184.66 222.96L180.88 227.72C180.18 228.56 179.34 229.4 178.5 230.24C177.8 230.8 177.1 231.22 176.68 231.92C176.26 232.34 175.84 232.76 175.56 233.18C175.28 233.32 175.14 233.6 175 233.88C174.72 234.3 174.3 234.58 173.88 235C173.74 235.28 173.46 235.56 173.18 235.84C173.04 236.12 173.04 236.26 173.46 236.26C174.3 236.4 175.14 236.4 176.12 236.26C176.96 236.26 177.8 235.98 178.5 235.84C179.2 235.7 180.04 235.56 180.88 235.28C181.44 235.14 182.14 235 182.84 234.86L184.38 234.44C185.36 234.3 186.2 233.88 187.18 233.46C187.74 233.18 188.16 232.76 188.86 232.62L190.68 232.06C191.1 231.92 191.52 231.78 191.8 231.5C191.94 231.36 192.22 231.36 192.36 231.5C192.64 231.64 192.78 231.78 192.5 232.06C192.36 232.2 192.22 232.34 192.08 232.48L190.54 234.16C189.98 234.86 189.42 235.56 188.72 236.12C188.16 236.68 187.6 237.24 187.18 237.8L186.06 239.06C185.64 239.48 185.22 239.76 185.08 240.18C184.94 240.6 184.66 240.88 184.38 241.16C183.68 242.28 182.98 243.4 182.42 244.52C181.86 245.08 181.58 245.78 181.16 246.2C180.32 247.04 179.62 247.74 178.92 248.58C178.36 249.28 177.8 249.98 177.24 250.54C177.24 250.68 177.1 250.82 177.1 250.82C176.54 251.66 175.98 252.5 175.28 253.06C175 253.06 175 253.34 174.72 253.34C174.02 254.04 173.46 254.74 172.9 255.58C172.62 256.28 172.06 256.98 171.78 257.68C171.36 258.24 171.08 258.8 170.8 259.36ZM209.86 202.38C210 202.38 210.28 202.38 210.28 202.1H210.56C210.7 202.24 210.7 202.38 210.7 202.38C210.56 202.8 210.42 203.22 210 203.5C209.86 203.78 209.72 203.92 209.58 204.06C209.3 204.34 209.16 204.48 208.88 204.62C207.76 205.74 206.92 206.86 205.94 207.98C205.1 208.96 204.26 209.94 203.28 210.92L201.32 212.88C200.9 213.44 200.34 214 200.06 214.56C199.22 215.26 198.66 216.1 197.82 216.94C197.4 217.5 196.84 217.92 196.42 218.34C196 218.76 195.72 219.04 195.3 219.46L194.46 220.3C193.9 221 193.2 221.42 192.5 222.12C192.36 222.26 192.22 222.54 191.94 222.68L189.42 224.78C189.14 224.92 188.86 225.2 188.72 225.34C188.58 225.48 188.58 225.62 188.86 225.62C189.56 225.76 190.54 226.04 191.38 226.18C191.52 226.18 191.66 226.18 191.8 226.04C192.64 225.76 193.62 225.76 194.46 225.48C195.44 225.34 196.28 225.2 197.26 224.78C197.68 224.64 198.1 224.36 198.66 224.36C199.78 224.22 200.9 223.94 201.88 223.52C202.86 223.1 203.7 222.68 204.68 222.12C205.38 221.7 206.22 221.42 207.06 221.14C207.76 220.86 208.32 221.42 208.32 221.98C208.32 222.12 208.32 222.26 208.18 222.4C208.04 222.54 207.9 222.54 207.76 222.68L206.08 224.36C205.1 225.48 203.98 226.6 202.86 227.58C202.44 228.14 201.88 228.56 201.46 229.12C200.9 229.68 200.48 230.24 200.06 230.8C199.5 231.22 198.94 231.78 198.38 232.34L196.42 234.58C195.44 235.7 194.32 236.96 193.34 238.22C192.5 238.92 191.8 240.04 191.1 240.88C190.96 241.16 190.68 241.44 190.4 241.72C190.12 242.28 189.84 242.84 189.42 243.4C189.14 243.82 188.72 244.24 188.44 244.8L186.34 247.46C186.06 248.02 185.5 248.72 185.08 249.28C184.38 250.26 183.82 251.1 183.12 251.94C182.7 252.36 182.14 252.78 181.86 253.34C181.3 254.18 180.6 254.88 180.04 255.72C180.04 255.86 179.9 256 179.76 256.14C179.76 256.28 179.48 256.28 179.48 256.56C180.04 256.42 180.46 256.28 180.88 256C181.58 255.86 182.42 255.72 183.12 255.3L187.46 253.62C188.86 253.2 190.12 252.78 191.52 252.78C192.36 252.78 193.06 252.64 193.9 252.5C194.6 252.5 195.16 252.36 195.58 252.08C196 251.94 196.28 251.66 196.56 251.66C196.7 251.52 196.84 251.52 196.98 251.52C197.26 251.66 197.4 252.08 197.26 252.36C197.12 252.78 196.84 253.06 196.56 253.48C196.28 254.18 196 254.88 195.44 255.58C194.32 257.12 193.34 258.66 192.22 260.2L189.84 263.56C189.7 263.98 189.42 264.4 189 264.82C188.3 265.52 187.74 266.08 187.32 267.06C187.32 267.06 187.18 267.06 187.18 267.2C186.62 267.62 186.06 268.32 185.64 268.88C184.8 269.72 184.1 270.7 183.4 271.68C183.26 271.96 183.12 272.24 182.84 272.52L181.72 274.06C181.44 274.76 180.88 275.32 180.46 276.02C180.04 276.72 179.48 277.28 178.92 277.84L178.08 279.1C177.66 279.52 177.38 279.94 176.96 280.5L175.56 282.32C175.28 282.88 174.72 283.3 174.3 284L173.46 285.12C173.46 285.26 173.32 285.26 173.32 285.26C173.04 285.82 172.76 286.1 172.48 286.38C172.34 286.52 172.34 286.66 172.2 286.8L171.22 288.2C170.66 288.62 170.38 289.04 170.1 289.46L169.54 290.44C169.26 290.72 168.98 290.72 168.98 291L168.14 291.98C168 292.12 167.72 292.26 167.58 292.54C167.86 292.68 167.86 292.4 168 292.4C168.7 291.7 169.54 291 170.38 290.3C171.5 289.32 172.48 288.2 173.46 287.22C173.88 286.52 174.44 285.82 175 284.98C175.7 284.14 176.4 283.16 176.96 282.18C177.66 281.34 178.36 280.22 179.2 279.38C179.48 278.96 179.9 278.4 180.46 277.98C180.88 277.56 181.3 277.28 181.58 276.86C182.42 276.16 182.98 275.32 183.68 274.76C184.94 273.22 186.34 271.82 187.46 270.28C188.16 269.3 188.86 268.18 189.56 267.34C190.26 266.22 190.96 265.1 191.8 263.98C192.36 263.14 192.92 262.44 193.62 261.6L194.32 260.76C194.6 260.2 195.16 259.92 195.44 259.36L196.7 257.68C197.26 256.98 197.82 256.28 198.38 255.72C198.8 255.16 199.22 254.74 199.5 254.18C200.06 253.48 200.48 252.78 200.9 252.08C201.46 251.38 202.02 250.82 202.3 249.98C202.58 249.7 202.72 249.14 202.72 248.58C202.72 248.3 202.58 248.3 202.44 248.3C202.3 248.44 202.16 248.44 202.02 248.44L201.04 248.58C200.9 248.72 200.9 248.86 200.62 248.72L200.34 248.86C199.78 248.86 199.22 249 198.8 249.14C197.96 249.28 197.26 249.42 196.42 249.7C195.72 249.84 195.16 250.12 194.6 250.26C193.9 250.4 193.34 250.82 192.64 250.96C191.66 251.24 190.68 251.38 189.56 251.66H189.14C188.58 251.52 188.58 251.24 188.72 250.82C188.86 250.68 188.86 250.54 189 250.26C189 250.26 189.14 250.12 189.14 249.98C189.42 249.84 189.42 249.7 189.56 249.42C189.56 249.14 189.56 249.14 189.84 248.86L191.1 247.46C191.24 247.32 191.24 247.18 191.24 247.18C191.52 246.76 191.66 246.2 192.08 245.78C192.36 245.36 192.64 245.08 192.92 244.66L195.44 241.3C195.72 241.02 195.86 240.74 196 240.46C196 240.18 196.14 240.04 196.28 239.76C196.56 239.62 196.84 239.34 197.12 239.06C197.82 237.94 198.8 237.1 199.78 235.98C199.92 235.84 200.06 235.7 200.2 235.42L200.62 234.58C201.32 234.02 201.74 233.18 202.3 232.62C202.44 232.48 202.58 232.34 202.58 232.2C202.72 231.78 203 231.5 203.14 231.22C203.84 230.66 204.4 229.96 204.96 229.26C205.1 229.12 205.38 228.84 205.52 228.42C205.66 228.14 205.8 227.86 206.08 227.58L207.06 226.18C207.48 225.34 208.04 224.5 208.6 223.66C208.88 222.96 209.3 222.26 209.72 221.42C210 221.28 210 221.14 210.14 220.86C210.42 220.3 210.84 219.88 210.98 219.46C211.12 219.18 211.12 219.18 211.4 219.18C211.82 219.18 211.96 219.46 211.82 219.88C211.68 220.3 211.4 220.58 211.12 220.86C210.84 221.42 210.56 222.12 210.14 222.68L208.88 224.92C208.6 225.2 208.6 225.62 208.32 225.9L207.9 226.46C207.9 226.6 207.76 226.88 207.62 227.02L206.36 228.7C205.8 229.68 205.1 230.52 204.26 231.5C204.12 231.64 203.98 231.92 203.7 232.06C203.42 232.62 203.14 233.18 202.58 233.74L201.6 235C201.32 235.56 200.9 235.98 200.62 236.4L198.1 239.2C197.68 239.48 197.26 240.04 196.98 240.46L196.28 241.72C195.58 242.56 194.88 243.54 194.04 244.38C193.2 245.5 192.5 246.48 191.8 247.74C191.8 247.74 191.8 247.88 191.66 248.02C191.24 248.58 190.68 249.28 190.26 249.98C190.12 249.98 190.12 250.26 189.98 250.26C189.84 250.54 189.98 250.68 190.26 250.54H190.96C191.52 250.4 192.36 250.26 192.92 249.98C193.06 249.84 193.2 249.84 193.2 249.7C194.04 249.7 194.6 249.28 195.44 249.14C196 249 196.56 248.72 197.12 248.58C197.54 248.58 197.96 248.44 198.38 248.3L198.94 248.16C199.36 248.16 199.64 248.02 200.06 248.02C200.34 247.88 200.9 247.74 201.18 247.74H201.46C201.88 247.46 202.3 247.46 202.58 247.46C202.72 247.32 202.86 247.18 202.86 247.46C203.14 247.74 203.42 247.88 203.42 248.16C203.42 248.86 203.7 249.42 203.14 249.84V249.98C203 250.4 202.86 250.82 202.58 251.1C202.3 251.8 201.88 252.22 201.46 252.78C201.18 253.34 200.76 253.9 200.34 254.46C200.06 255.02 199.64 255.58 199.22 256.14L197.68 257.82C197.26 258.24 196.84 258.94 196.42 259.36C196.28 259.78 196 260.2 195.72 260.48C195.3 260.76 195.02 261.32 194.6 261.88L193.2 263.56C192.78 264.26 192.22 264.82 191.8 265.52C191.1 266.5 190.4 267.34 189.84 268.32C189.28 269.3 188.58 270.14 188.02 270.98C187.46 271.68 186.9 272.24 186.34 272.8C186.2 273.22 185.78 273.36 185.64 273.78C185.36 274.2 184.94 274.48 184.66 274.9L183.12 276.44C182.7 277 182.14 277.56 181.72 277.84C181.02 278.54 180.32 279.1 179.76 279.94C179.2 280.78 178.5 281.62 177.8 282.46C177.1 283.3 176.4 284.42 175.7 285.26C175.42 285.68 175.28 286.1 175 286.38C174.58 286.94 174.3 287.36 173.88 287.78C173.46 288.62 172.62 289.46 171.78 290.16C171.22 290.72 170.66 291.28 169.96 291.7C168.98 292.54 168.14 293.52 167.16 294.22C167.02 294.36 166.88 294.36 166.74 294.36H166.18C165.9 294.36 165.62 294.36 165.48 294.22C165.9 293.8 166.18 293.38 166.46 292.96C166.46 292.68 166.74 292.4 166.74 292.12C166.74 291.98 166.74 291.84 166.88 291.84C167.02 291.84 167.16 291.56 167.3 291.28C167.3 291 167.58 290.58 167.86 290.16C168.28 289.88 168.42 289.46 168.7 289.04C169.26 288.48 169.68 287.78 170.1 287.08C170.52 286.24 171.08 285.4 171.64 284.56L172.9 282.32C173.04 281.9 173.18 281.62 173.46 281.34C173.88 280.5 174.44 279.8 175 279.1C175.28 278.4 175.98 277.84 176.4 277V276.86C176.96 276.44 177.24 275.88 177.52 275.32C177.8 275.04 177.94 274.62 178.22 274.2L179.48 272.52C180.04 271.68 180.74 270.84 181.3 270.14C181.86 269.16 182.42 268.32 182.98 267.48C183.54 266.64 184.1 265.8 184.66 264.82L185.92 262.3C186.62 261.04 187.04 259.64 187.74 258.52C187.88 258.24 187.74 258.24 187.6 258.24H186.9C186.48 258.38 186.2 258.52 185.78 258.52L182.7 259.36C182.42 259.5 182.28 259.64 182.14 259.64C181.16 260.2 180.32 260.48 179.2 260.62C178.64 260.76 178.08 260.76 177.52 261.04C176.12 261.6 174.44 261.88 172.9 262.16C172.34 262.3 171.78 262.3 171.22 262.44C170.94 262.44 170.66 262.44 170.24 262.58C169.82 262.58 169.82 262.44 169.82 262.16V262.02C169.68 262.02 169.54 262.02 169.54 262.16C169.54 262.16 169.54 262.3 169.4 262.44C168.98 263.28 168.56 264.26 168 264.96C167.58 265.66 167.16 266.22 166.88 266.92C166.32 267.9 165.76 268.74 165.2 269.58C165.06 269.86 164.78 270.14 164.64 270.42V270.56H164.78L165.76 270.14C166.04 270.14 166.18 270.14 166.32 269.86C166.46 269.72 166.74 269.58 167.02 269.72C167.02 269.86 167.3 269.72 167.3 269.72C167.58 269.72 167.86 269.58 168.28 269.44C170.1 268.88 171.78 268.18 173.6 267.34C174.44 266.92 175.42 266.22 176.4 265.8C177.66 265.24 178.92 264.54 180.18 263.98L181.44 263.28C181.86 263.14 182.14 262.86 182.42 262.86C183.12 262.58 183.68 262.3 184.1 261.88C184.24 261.74 184.38 261.74 184.38 261.6C184.52 261.6 184.94 261.74 185.08 261.88C185.22 262.16 185.22 262.3 184.94 262.44C184.94 262.58 184.8 262.58 184.66 262.72C183.96 263.7 183.26 264.82 182.7 266.08C182.14 267.06 181.58 267.9 181.02 268.74L179.06 271.68C178.92 272.24 178.64 272.66 178.22 273.08C177.66 273.78 176.96 274.34 176.54 275.04L175.14 277.56C174.58 278.68 173.88 279.66 173.18 280.78C172.48 281.76 171.64 282.74 170.94 283.86C170.66 284.14 170.38 284.56 170.24 285.12C170.24 285.26 170.1 285.26 170.1 285.4C169.82 285.68 169.82 285.96 169.68 286.1C169.12 287.08 168.7 287.92 168 288.76C167.86 288.9 167.58 289.04 167.44 289.32C167.3 289.6 167.16 289.88 166.88 290.16C166.74 290.3 166.74 290.44 166.6 290.44C166.18 290.86 166.18 291.42 165.9 291.84C165.48 292.4 165.48 292.96 165.06 293.52C164.64 294.36 164.5 295.06 164.36 295.9V296.46C163.94 296.88 163.66 297.44 163.24 297.86C163.1 297.86 162.96 298 163.1 298.14C163.24 298.14 163.24 298.14 163.38 298C164.08 297.72 164.78 297.3 165.48 297.02C165.9 296.74 166.46 296.46 167.02 296.18C167.58 295.76 168 295.2 168.42 294.78C168.56 294.64 168.7 294.64 168.7 294.5C168.7 294.36 168.84 294.36 168.84 294.22L170.38 292.96C170.94 292.54 171.5 292.26 171.78 291.56H172.06C172.48 291.28 172.9 291 173.46 290.72C173.88 290.3 174.3 290.02 174.58 289.6C174.86 289.32 175.14 288.9 175.42 288.62L176.96 286.94C177.24 286.66 177.24 286.24 177.52 285.96C178.92 284.7 180.04 283.3 181.16 281.9C182 280.78 182.84 279.52 183.82 278.4C184.1 278.12 184.38 277.84 184.66 277.42C185.08 276.72 185.5 276.02 186.06 275.32C187.46 273.64 188.58 271.96 189.84 270.42C190.4 269.58 190.96 268.74 191.8 268.04L193.06 266.64C193.48 266.22 193.62 265.66 194.04 265.24C194.88 264.26 195.44 263.14 196.28 262.3C196.84 261.88 197.12 261.32 197.4 260.76C198.38 259.36 199.36 258.1 200.2 256.7C200.62 256 201.18 255.16 201.74 254.6C202.86 253.34 203.7 251.8 204.82 250.26C205.38 249.42 205.94 248.58 206.64 247.74C207.2 246.9 207.76 245.92 208.18 244.94C208.46 244.1 208.74 243.26 209.16 242.42C209.3 242.28 209.44 242 209.3 242C209.16 241.72 209.02 242 208.88 242C208.04 242 207.48 242 206.78 242.28C206.08 242.56 205.38 242.56 204.82 242.84C204.12 242.84 203.42 242.98 202.72 243.12L200.9 243.96C200.62 244.1 200.62 244.1 200.48 244.1C200.2 244.1 199.92 244.1 199.64 244.24C198.94 244.24 198.38 244.52 197.54 244.66C196.84 244.94 195.86 245.22 195.16 245.92C194.88 246.2 194.32 245.92 194.32 245.64V245.36C194.6 245.22 194.74 244.8 195.02 244.52C195.44 244.1 195.72 243.68 196 243.12C196.56 242.56 196.98 242 197.4 241.44C197.82 240.88 198.38 240.46 198.66 239.9C199.5 239.2 200.06 238.36 200.76 237.52C201.18 236.82 201.74 236.26 202.16 235.7C202.58 235.14 202.86 234.58 203.28 234.16L204.96 231.92C205.38 231.36 205.8 230.94 206.22 230.52C206.78 229.68 207.48 229.12 207.9 228.28C207.9 228.28 208.04 228.28 208.04 228.14C208.32 227.86 208.46 227.58 208.6 227.16C208.88 226.46 209.44 225.76 209.86 224.92C210.56 223.94 211.4 222.96 211.96 221.84C212.38 220.86 212.8 220.02 213.08 219.18C213.22 218.9 213.36 218.76 213.36 218.48C212.8 218.48 212.24 218.48 211.82 218.34C210.7 218.34 209.44 218.2 208.32 218.34C207.9 218.34 207.48 218.48 207.2 218.48C205.66 218.76 204.12 219.18 202.72 219.74C202.16 219.88 201.74 220.02 201.18 220.3C200.9 220.58 200.62 220.44 200.62 220.16C200.48 220.02 200.48 219.74 200.76 219.6C200.9 219.6 200.9 219.46 200.9 219.46C201.46 218.9 202.16 218.48 202.3 217.64C202.3 217.5 202.44 217.36 202.58 217.22C202.72 217.22 202.86 217.22 202.72 217.08C202.58 216.94 202.58 217.08 202.58 217.08L201.04 218.9C200.9 219.18 200.9 219.32 200.62 219.46C200.06 219.46 199.78 220.02 199.5 220.3C199.22 220.44 199.22 220.58 199.08 220.72C198.94 220.86 198.8 220.86 198.94 221C198.94 221.14 199.08 221.14 199.22 221.14L200.62 220.72C201.18 220.58 201.88 220.3 202.58 220.16C203.14 220.02 203.7 219.74 204.4 219.88H204.54C205.1 219.88 205.52 219.74 205.94 219.74C206.92 219.74 207.9 219.46 208.88 219.32C209.3 219.32 209.72 219.18 210 219.04C210.28 218.9 210.56 219.18 210.56 219.46C210.42 219.88 210.28 220.3 210 220.58C210 220.58 210 220.72 209.86 220.72C209.72 220.86 209.72 220.86 209.58 220.58C209.58 220.58 209.58 220.44 209.72 220.44C209.72 220.3 209.86 220.3 209.86 220.3C210 220.3 210 220.16 210 220.02C210 220.02 209.86 220.02 209.72 220.02H209.44C208.74 220.3 208.18 220.3 207.62 220.3H207.06C206.5 220.44 205.94 220.58 205.38 220.58C204.26 220.58 203.28 220.86 202.16 221.14C201.88 221.14 201.6 221.28 201.32 221.42C200.62 221.56 199.78 221.7 198.94 221.98C198.8 222.12 198.66 221.98 198.52 221.98C198.52 221.84 198.52 221.7 198.38 221.7C198.24 221.84 198.24 221.98 198.1 221.98C197.96 222.4 197.96 222.4 197.54 221.98C197.4 221.7 197.4 221.7 197.54 221.42C198.1 220.86 198.38 220.3 198.94 219.88V219.74C198.94 219.46 199.22 219.32 199.36 219.32C199.78 219.18 200.06 218.9 200.34 218.62C200.62 218.34 200.9 218.06 201.04 217.64C201.18 217.5 201.18 217.22 201.46 217.08C201.74 216.8 202.02 216.38 202.44 216.1C202.58 215.96 202.86 215.82 202.86 215.54C203.14 215.12 203.42 214.7 203.98 214.28L204.4 213.72C204.68 213.16 204.82 212.6 205.24 212.18C205.38 212.18 205.38 212.18 205.38 212.04C205.52 211.76 205.8 211.34 206.08 210.92L207.62 208.4C207.9 207.84 208.18 207.42 208.6 206.86C209.02 206.3 209.58 205.6 209.86 204.9C210.14 204.34 210.56 203.78 210.84 203.22L212.24 200.7C212.38 200.56 212.52 200.42 212.52 200.28C212.38 200.28 212.24 200.42 212.24 200.42C211.82 200.84 211.26 201.26 210.7 201.54C210.56 201.82 210.28 201.96 210 202.1C209.86 202.1 209.72 202.24 209.86 202.38C209.72 202.38 209.58 202.38 209.44 202.52C209.16 202.8 209.02 203.08 208.74 203.22L208.04 204.06C208.04 204.06 208.04 204.2 208.18 204.2C208.18 204.2 208.32 204.2 208.32 204.06L209.72 202.66C209.72 202.66 209.72 202.38 209.86 202.38ZM195.58 253.2C195.3 253.34 194.88 253.34 194.6 253.34C193.48 253.48 192.36 253.62 191.24 253.62C190.82 253.62 190.26 253.76 189.84 253.9C189.14 254.04 188.44 254.32 187.74 254.46C186.76 254.74 185.78 255.16 184.94 255.44C184.24 255.72 183.68 256.14 182.98 256.28L180.6 257.12C180.04 257.26 179.76 257.54 179.34 257.68C178.64 258.1 178.08 258.52 177.52 259.08C177.38 259.36 177.24 259.5 177.1 259.64C176.96 259.92 176.4 259.92 176.26 259.78C176.12 259.64 176.12 259.36 176.4 259.08C177.24 258.24 177.8 257.26 178.5 256.28C178.78 256 179.06 255.58 179.34 255.16C179.9 254.46 180.46 253.76 181.02 253.06L181.58 252.22C182 251.66 182.42 251.38 182.98 250.82C183.26 250.54 183.54 250.26 183.68 249.98C183.96 249.42 184.38 248.86 184.8 248.3C185.36 247.46 186.06 246.76 186.62 245.92C186.76 245.64 186.9 245.5 187.04 245.36L188.58 243.26C189.14 242.42 189.7 241.44 190.4 240.6C190.82 240.04 191.24 239.48 191.66 238.92L193.76 236.54C194.88 235.14 196 233.74 197.26 232.48C197.82 231.78 198.38 231.22 198.94 230.66C199.5 230.24 199.92 229.68 200.34 229.12C200.9 228.42 201.46 227.72 202.16 227.16C203.14 226.32 203.98 225.48 204.82 224.64C205.8 223.66 206.5 222.68 207.48 221.84C207.48 221.7 207.76 221.7 207.62 221.56C207.48 221.42 207.48 221.42 207.2 221.42C207.2 221.42 207.2 221.56 207.06 221.56C206.92 221.7 206.64 221.7 206.5 221.84C205.8 222.26 205.1 222.68 204.54 223.1C204.12 223.38 203.7 223.8 203.14 223.8L203 223.94C202.44 224.22 201.74 224.36 201.32 224.64C201.32 224.78 201.18 224.78 201.18 224.78L198.8 225.2C198.38 225.2 198.1 225.34 197.82 225.48C197.4 225.76 197.12 225.76 196.7 225.9C195.86 226.18 194.88 226.32 194.04 226.46C193.34 226.6 192.64 226.6 192.08 226.88H191.66C191.1 226.88 190.4 226.74 189.84 226.6C189.14 226.6 188.58 226.32 187.74 226.32C187.46 226.32 187.18 226.04 187.18 225.9C187.04 225.62 187.18 225.48 187.32 225.48C187.46 225.34 187.6 225.2 187.74 225.2C188.44 224.36 189.42 223.8 190.12 223.1C190.4 222.96 190.68 222.82 190.96 222.54C191.52 221.84 192.36 221.14 193.06 220.44C193.62 220.02 194.04 219.74 194.46 219.18C194.6 218.9 194.74 218.76 194.88 218.62C195.44 218.2 196 217.78 196.42 217.22C197.12 216.8 197.54 216.1 198.1 215.4L199.78 213.44C200.62 212.32 201.46 211.34 202.58 210.36C203.84 209.1 205.1 207.84 206.08 206.44C206.22 206.3 206.36 206.3 206.22 206.16C205.66 206.58 205.38 207 204.82 207.42L204.4 207.84C203.84 208.12 203.28 208.68 202.86 209.1C202.02 209.94 201.32 210.92 200.48 211.62C199.92 212.32 199.22 212.74 198.52 213.16C198.1 213.58 197.68 213.72 197.4 214.14C196.14 215.4 194.6 216.38 193.2 217.78L192.36 218.62C191.94 219.04 191.52 219.46 190.96 219.88C190.12 220.58 189.42 221.42 188.58 222.12C188.3 222.4 188.02 222.68 187.74 222.82C186.9 223.52 186.34 224.22 185.64 224.92C185.22 225.2 185.08 225.62 184.66 225.9C184.24 226.32 183.68 226.88 183.26 227.58C182.98 228 182.7 228.7 182.14 229.12V229.4C182.14 229.68 182.14 229.96 181.86 230.1C181.72 230.24 181.58 230.24 181.58 230.38C181.44 230.52 181.3 230.52 181.44 230.66C181.44 230.8 181.58 230.66 181.58 230.66C182.14 230.52 182.42 230.38 182.84 230.24C183.68 230.1 184.38 229.82 185.22 229.68H185.5C185.64 229.68 185.78 229.54 186.06 229.54C186.48 229.54 186.9 229.4 187.18 229.12H187.46C188.3 229.12 188.86 228.84 189.56 228.84H190.82C191.52 228.7 192.36 228.7 192.92 228.42L194.74 228C195.02 227.86 195.44 227.86 195.72 228C195.72 228 196 228 196 227.86C195.72 227.58 195.44 227.58 195.16 227.44C195.16 227.3 195.02 227.3 195.02 227.16C195.16 227.02 195.16 227.02 195.3 227.02L196.14 227.44C196.56 227.58 196.98 227.72 197.4 227.72C197.54 227.72 197.54 227.86 197.54 228C197.68 228.28 197.4 228.7 197.54 229.12C197.4 229.12 197.4 228.84 197.4 228.84C197.4 228.7 197.4 228.56 197.26 228.56C197.12 228.56 197.12 228.56 196.98 228.7C196.84 228.98 196.56 229.4 196.56 229.68C196.28 230.1 196.14 230.52 195.86 230.8C195.72 230.94 195.44 231.22 195.44 231.5C195.44 231.64 195.16 231.78 195.16 231.92C194.74 232.2 194.46 232.48 194.32 232.9C194.32 233.18 194.32 233.18 194.04 233.18C193.9 233.18 193.76 233.46 193.62 233.46C193.2 233.88 192.92 234.3 192.36 234.72L191.52 235.42C191.24 235.84 190.96 236.54 190.54 236.82C190.4 236.82 190.4 236.96 190.4 236.96C190.4 237.1 190.26 237.24 190.12 237.38C189.98 237.52 189.84 237.66 189.84 237.8C189.84 237.94 189.7 238.22 189.56 238.22C189.42 238.36 189.42 238.5 189.28 238.5C189 239.06 188.58 239.62 188.16 240.04C187.74 240.74 187.18 241.3 186.62 241.86L184.94 243.4C184.38 244.24 183.82 244.94 183.12 245.64C182.84 246.06 182.42 246.48 182.28 246.76C182 247.18 181.86 247.46 181.58 247.74C181.3 248.02 181.02 248.44 180.74 248.86C180.6 249 180.6 249.28 180.32 249.42C180.04 249.7 180.04 249.98 179.76 250.26V250.4C179.34 250.82 179.06 251.38 178.64 251.66C178.36 251.66 178.36 251.94 178.36 251.94C177.52 252.78 176.54 253.62 175.84 254.6L174.16 256.7C173.88 257.12 173.6 257.54 173.18 257.96C172.48 258.66 171.92 259.5 171.22 260.34C171.08 260.62 170.8 260.9 170.66 261.32C170.66 261.32 170.52 261.46 170.52 261.6C170.66 261.74 170.8 261.6 170.94 261.6C171.64 261.6 172.34 261.46 173.18 261.32C173.6 261.32 173.88 261.18 174.16 261.04C174.72 261.04 175.28 261.04 175.84 260.76C176.4 260.62 176.96 260.48 177.38 260.2C177.8 260.06 178.22 259.92 178.64 259.92H178.92C179.2 259.78 179.48 259.64 179.76 259.64C180.32 259.5 180.88 259.36 181.44 259.08C182 258.8 182.42 258.52 183.12 258.38H183.26C183.82 258.1 184.38 257.96 184.8 257.96C185.78 257.82 186.62 257.4 187.6 257.26H187.74C188.02 257.12 188.16 257.26 188.16 257.4C188.3 257.68 188.3 257.68 188.58 257.82C189 257.96 189 258.24 188.86 258.52C188.44 259.08 188.3 259.64 188.02 260.2L187.18 261.88C186.9 262.58 186.34 263.42 186.06 264.26L185.64 265.1C185.22 265.66 184.94 266.36 184.38 267.06C184.1 267.62 183.68 268.18 183.26 268.74C182.98 269.3 182.7 269.58 182.42 270.14C181.86 270.7 181.44 271.4 181.02 271.96C180.32 272.94 179.48 273.92 178.92 274.9C178.36 275.88 177.66 276.72 176.96 277.7C176.68 278.26 176.12 278.82 175.84 279.38C175.56 279.8 175.28 280.08 175 280.5L173.6 282.6C173.46 283.02 173.32 283.3 173.04 283.72L172.48 284.7C172.34 284.84 172.34 284.98 172.34 285.12C172.62 285.12 172.62 284.98 172.62 284.84L174.44 282.32C175 281.76 175.28 281.2 175.84 280.64C176.26 280.08 176.68 279.52 176.96 278.96C177.52 278.4 177.94 277.7 178.5 277C179.48 275.88 180.32 274.62 181.16 273.36C181.16 273.22 181.44 273.08 181.44 272.94C181.86 272.52 182.14 271.96 182.56 271.4C182.98 270.84 183.26 270.28 183.68 269.86C184.24 269.02 184.8 268.46 185.5 267.76C186.06 267.06 186.62 266.36 187.04 265.66C187.18 265.38 187.18 265.38 187.46 265.24C188.58 264.12 189.42 262.86 190.12 261.46C190.54 260.76 190.96 260.2 191.38 259.64C191.8 259.08 192.36 258.38 192.78 257.68L193.48 256.56C194.18 255.58 194.88 254.6 195.58 253.48C195.58 253.34 195.72 253.34 195.58 253.2ZM208.6 244.52L208.32 244.8C208.6 244.8 208.6 244.52 208.6 244.52ZM202.72 250.54C202.86 250.54 202.86 250.4 202.86 250.4C202.86 250.26 202.86 250.26 202.72 250.26C202.72 250.26 202.58 250.26 202.72 250.4V250.54ZM171.22 287.5C171.22 287.5 171.36 287.36 171.36 287.22C171.36 287.22 171.36 287.08 171.22 287.08C171.22 287.08 171.22 287.22 171.08 287.36L171.22 287.5ZM281.485 279.66L280.365 278.12C280.365 277.98 280.225 277.84 280.225 277.7C279.385 276.86 278.545 276.16 277.565 275.46C277.285 275.18 276.865 274.9 276.445 274.76C276.025 274.62 275.465 274.34 275.045 274.06C274.345 273.64 273.505 273.5 272.805 273.5H271.685C270.705 273.36 269.725 273.64 268.745 274.06L268.045 274.48C267.485 274.76 266.925 275.18 266.505 275.74C265.805 276.3 265.245 277 264.685 277.7C263.845 278.96 263.565 280.36 263.425 281.76C263.425 282.04 263.425 282.32 263.425 282.6L263.845 284.98C264.265 286.1 264.965 286.94 265.805 287.64C267.065 288.76 268.465 289.46 269.865 290.16C270.845 290.58 271.825 290.72 272.805 290.58C273.225 290.44 273.645 290.3 274.065 290.3C274.345 290.3 274.765 290.16 275.185 290.02C275.885 289.74 276.725 289.46 277.425 289.04C277.705 288.76 277.985 288.48 278.405 288.34C278.685 288.2 278.965 287.92 279.245 287.64C279.945 287.08 280.505 286.38 280.925 285.68C281.205 285.4 281.345 284.98 281.485 284.56L281.905 282.04C282.045 281.2 281.905 280.36 281.485 279.66ZM281.485 281.9C281.485 282.6 281.345 283.3 281.205 283.86C281.065 284 281.065 284 281.065 284.14C281.065 284.7 280.785 285.26 280.505 285.68L279.385 286.94C279.105 287.36 278.685 287.78 278.125 288.06C277.565 288.2 277.145 288.62 276.725 288.9C275.885 289.46 274.905 289.74 273.925 289.88H273.645C273.085 290.16 272.385 290.16 271.825 290.16C270.985 290.16 270.285 289.88 269.445 289.46C269.025 289.18 268.465 288.9 267.905 288.62C267.065 288.2 266.365 287.64 265.665 286.94C264.825 286.1 264.265 285.12 264.125 283.86C263.985 283.44 263.845 283.02 263.845 282.6C263.845 282.04 263.845 281.62 263.985 281.2C263.985 279.94 264.405 278.82 265.105 277.84L265.385 277.42C265.805 277.14 266.085 276.72 266.365 276.44C266.785 275.74 267.485 275.32 268.045 274.9C268.325 274.76 268.605 274.62 268.745 274.48C269.305 274.2 269.865 274.06 270.425 273.92C271.405 273.78 272.525 273.92 273.505 274.06C274.065 274.06 274.625 274.34 275.045 274.62C275.325 274.76 275.465 274.76 275.605 274.9C276.445 275.18 277.145 275.6 277.845 276.16C278.545 276.72 279.245 277.42 279.805 278.12C279.945 278.12 279.945 278.26 280.085 278.26C280.365 278.82 280.785 279.24 281.065 279.8C281.485 280.5 281.625 281.2 281.485 281.9ZM277.285 276.86C276.165 276.02 274.905 275.6 273.505 275.32C273.085 275.32 272.665 275.18 272.245 275.32C271.545 275.46 270.845 275.46 270.145 275.6C269.725 275.6 269.305 275.6 269.025 275.74C268.465 276.02 268.045 276.3 267.765 276.72C267.625 276.86 267.625 277 267.485 277C267.205 277.28 266.925 277.56 266.785 277.98L266.365 278.82C266.085 279.24 265.945 279.66 265.805 280.22C265.805 280.5 265.665 280.92 265.665 281.34C265.525 281.9 265.525 282.46 265.665 283.02V283.3C265.665 283.86 265.805 284.28 265.805 284.84C265.945 285.54 266.225 286.1 266.645 286.66C267.345 287.36 268.185 288.06 269.165 288.48C270.285 288.9 271.405 289.04 272.665 289.04C273.085 289.04 273.505 289.04 273.925 288.9C274.205 288.9 274.485 288.9 274.765 288.76C274.905 288.76 275.045 288.62 275.185 288.62C275.745 288.62 276.305 288.34 276.725 288.06L278.405 286.66C278.825 286.1 279.385 285.4 279.665 284.7C279.945 284 279.945 283.16 280.085 282.32V281.62C279.945 280.64 279.665 279.66 279.105 278.82C278.545 278.12 277.985 277.42 277.285 276.86ZM279.525 283.16C279.525 283.44 279.385 283.72 279.385 284C279.245 284.98 278.685 285.68 277.985 286.38L277.565 286.8C277.705 286.38 277.985 285.96 278.265 285.54C278.545 284.98 278.545 285.12 278.125 284.7C277.425 284.28 276.865 283.86 276.165 283.44H276.025C275.885 283.3 275.745 283.44 275.745 283.58C275.745 283.72 275.745 283.86 275.745 284L274.905 284.84C274.765 285.12 274.765 285.26 274.905 285.4C275.745 285.82 276.585 286.38 277.425 286.94C276.865 287.36 276.445 287.92 275.745 288.06C275.605 288.2 275.465 288.2 275.325 288.2C274.905 288.2 274.905 288.2 274.765 287.92L274.345 286.38C274.345 286.24 274.205 286.24 274.345 286.1C274.485 285.96 274.345 285.96 274.345 285.82C274.205 285.82 274.065 285.68 273.785 285.68C273.645 285.54 273.645 285.68 273.645 285.82C273.785 286.1 273.645 286.1 273.365 286.1C273.085 286.24 272.805 286.38 272.665 286.52C272.385 286.52 272.245 286.66 272.385 286.94C272.665 287.36 272.805 287.92 272.945 288.34C272.945 288.62 272.945 288.62 272.665 288.62H271.405C271.545 288.34 271.685 288.06 271.685 287.78C271.965 287.36 271.965 286.94 272.105 286.52C272.105 286.38 272.105 286.38 271.965 286.24L270.985 285.82C270.845 285.68 270.705 285.68 270.705 285.54C270.705 285.26 270.565 285.4 270.425 285.4C270.285 285.4 270.145 285.4 270.145 285.68C270.145 285.82 270.005 285.96 269.865 286.1C269.725 286.38 269.445 286.66 269.165 286.94C269.025 287.08 269.025 287.22 269.165 287.36C269.445 287.64 269.725 287.92 270.005 288.34C268.885 287.92 267.765 287.22 267.065 286.24C267.065 286.1 267.205 286.1 267.485 286.1C267.905 285.96 268.465 285.68 268.885 285.4H269.165C269.445 285.12 269.445 285.12 269.305 284.84C269.305 284.42 269.165 284 269.025 283.58V283.3C269.025 283.16 269.025 282.88 268.745 282.88C268.605 282.74 268.465 282.74 268.465 282.88C268.465 283.16 268.185 283.16 268.045 283.16L266.925 283.58C266.645 283.72 266.645 283.72 266.645 284C266.645 284.56 266.645 285.26 266.785 285.82C266.505 285.54 266.365 285.26 266.365 284.98C266.225 284.56 266.085 284 266.085 283.58V282.74C265.805 282.04 266.085 281.48 266.225 280.78C266.505 280.92 266.645 281.06 266.925 281.34L268.325 282.18C268.605 282.32 268.605 282.32 268.745 282.04C268.745 281.9 268.885 281.76 268.885 281.62C269.305 281.34 269.445 280.78 269.725 280.36V280.08C269.725 279.94 269.725 279.94 269.585 279.8C269.305 279.8 269.165 279.52 269.025 279.38L267.905 278.68C267.625 278.68 267.625 278.68 267.485 278.82C267.205 279.1 266.925 279.38 266.645 279.66H266.505C266.365 279.66 266.505 279.52 266.505 279.52C266.785 278.96 267.065 278.4 267.345 277.84V277.7C267.905 277.14 268.465 276.58 269.165 276.16C269.445 276.02 269.445 276.16 269.445 276.44C269.445 276.72 269.585 277 269.725 277.42C269.865 277.7 270.005 278.12 270.005 278.54C270.145 278.82 270.145 278.96 270.565 278.82C270.985 278.82 271.405 278.82 271.825 278.68C271.965 278.68 272.245 278.68 272.385 278.54C272.665 278.54 272.665 278.54 272.665 278.26L272.245 276.16C272.245 276.02 272.245 275.88 272.105 275.74H272.245C272.945 275.74 273.785 275.74 274.485 276.02C274.625 276.16 274.765 276.16 274.625 276.44C274.205 277.28 273.645 277.98 273.505 278.96C273.365 279.24 273.505 279.38 273.645 279.52C274.205 279.52 274.625 279.8 275.045 279.94C275.325 280.08 275.325 280.08 275.465 279.8C275.605 279.66 275.745 279.38 275.885 279.1L276.725 277.7C276.865 277.42 276.725 277.28 276.585 277.14C276.305 277 276.165 276.72 275.885 276.58C276.445 276.72 276.865 277 277.285 277.42C277.985 277.98 278.545 278.82 279.105 279.66C279.385 280.22 279.525 280.78 279.665 281.34C279.805 282.04 279.665 282.6 279.525 283.16ZM270.285 276.16C270.705 276.16 270.985 276.16 271.265 276.02C271.825 276.02 271.825 276.02 271.825 276.44C271.965 276.86 271.965 277.28 272.105 277.84V277.98C272.105 278.12 272.105 278.26 271.965 278.26C271.545 278.4 271.125 278.4 270.705 278.4C270.565 278.54 270.425 278.4 270.425 278.26C270.285 277.84 270.145 277.28 270.005 276.86V276.72C269.865 276.3 269.865 276.3 270.285 276.16ZM275.045 276.58L276.165 277.42C276.165 277.42 276.305 277.56 276.165 277.7C275.885 278.26 275.605 278.82 275.185 279.38C275.185 279.52 275.045 279.52 274.905 279.52C274.625 279.38 274.345 279.1 274.065 279.1C273.925 279.1 273.925 278.96 273.925 278.96C274.065 278.54 274.205 278.12 274.485 277.7C274.485 277.56 274.625 277.28 274.765 277.14C274.765 276.86 274.905 276.72 275.045 276.58ZM266.645 280.08C266.925 279.8 267.205 279.52 267.625 279.24C267.625 279.1 267.765 279.1 267.905 279.24C268.325 279.52 268.745 279.8 269.165 280.22C269.305 280.22 269.305 280.22 269.305 280.36C269.025 280.78 268.745 281.34 268.325 281.76L266.645 280.5C266.365 280.36 266.365 280.36 266.645 280.08ZM278.825 279.8C278.825 279.52 278.685 279.52 278.405 279.66C278.265 279.8 277.985 279.8 277.705 279.94C277.145 280.08 276.585 280.36 275.885 280.5C275.605 280.64 275.465 280.78 275.605 281.2C275.745 281.62 276.025 282.04 276.025 282.6C276.025 282.88 276.165 282.88 276.445 282.74C276.585 282.74 276.725 282.74 277.005 282.74L277.985 282.6C278.405 282.46 278.685 282.32 279.105 282.32C279.245 282.32 279.245 282.18 279.245 282.04C279.245 281.48 279.105 281.06 279.105 280.5L278.825 279.8ZM278.685 281.9C278.405 282.04 277.985 282.04 277.705 282.18C277.285 282.32 277.005 282.18 276.585 282.32C276.585 282.32 276.445 282.32 276.445 282.18C276.445 281.9 276.165 281.62 276.165 281.34C276.025 280.92 276.025 280.92 276.305 280.92L278.405 280.08C278.545 280.08 278.545 280.08 278.685 280.22C278.685 280.78 278.685 281.2 278.825 281.62C278.825 281.76 278.825 281.9 278.685 281.9ZM274.065 280.92C273.785 280.78 273.645 280.64 273.505 280.64C273.365 280.36 273.085 280.36 272.945 280.36C272.665 280.22 272.245 280.22 271.965 280.22H271.545C270.705 280.5 270.145 281.06 270.005 281.9C269.865 282.32 269.865 282.6 270.005 283.02V283.44C270.145 284 270.565 284.42 270.985 284.98C271.405 285.12 271.825 285.4 272.245 285.26C272.525 285.4 272.805 285.12 273.085 285.12C273.365 285.12 273.645 284.98 273.925 284.84C274.345 284.56 274.765 284.14 274.905 283.58C275.185 283.16 275.185 282.88 275.045 282.46C274.905 281.76 274.625 281.2 274.065 280.92ZM274.625 283.16C274.485 283.58 274.345 283.86 274.065 284.14C273.925 284.28 273.785 284.42 273.645 284.42C273.505 284.56 273.365 284.7 273.085 284.7C272.805 284.7 272.525 284.98 272.245 284.84C271.825 284.98 271.545 284.7 271.265 284.7L271.125 284.56C270.985 284.42 270.985 284.28 270.985 284.28C270.425 283.86 270.285 283.16 270.285 282.6C270.285 282.04 270.425 281.48 270.985 281.06L271.265 280.78C271.545 280.64 271.825 280.5 272.105 280.64H272.385C272.805 280.64 273.225 280.78 273.645 281.2H273.785C274.345 281.48 274.485 282.04 274.625 282.6C274.765 282.74 274.765 283.02 274.625 283.16ZM272.805 281.9C272.665 281.62 272.525 281.62 272.385 281.62C271.825 281.62 271.405 281.9 271.265 282.32C271.265 282.74 271.685 283.44 271.965 283.58C272.245 283.72 272.385 283.72 272.665 283.58C273.225 283.16 273.505 282.46 272.805 281.9ZM272.525 283.3C272.245 283.3 272.105 283.16 271.965 283.02C271.825 282.88 271.825 282.88 271.825 282.74C271.685 282.46 271.685 282.18 271.965 282.04C272.245 281.9 272.525 282.04 272.665 282.32C272.805 282.46 272.805 282.6 272.805 282.74C272.805 282.88 272.665 283.16 272.525 283.3ZM276.305 283.16C276.305 283.3 276.305 283.3 276.445 283.3C276.445 283.3 276.585 283.3 276.585 283.16H276.445C276.305 283.02 276.305 283.16 276.305 283.16ZM266.925 284.28C266.925 284 267.065 284 267.205 283.86C267.625 283.72 268.045 283.72 268.465 283.58C268.605 283.58 268.605 283.58 268.605 283.72C268.745 284 268.745 284.42 268.885 284.7C269.025 284.84 269.025 284.98 268.885 284.98C268.325 285.26 267.905 285.54 267.345 285.68C267.205 285.68 267.065 285.68 267.065 285.54C267.065 285.12 267.065 284.84 266.925 284.42C266.925 284.42 267.065 284.28 266.925 284.28ZM277.285 286.38C276.585 285.96 276.025 285.54 275.465 284.98L276.025 284.14C276.165 284 276.165 284 276.305 284.14C276.865 284.42 277.425 284.7 277.845 285.12C277.845 285.12 277.845 285.12 277.985 285.12L277.285 286.38ZM270.845 288.34C270.565 288.2 270.425 288.06 270.145 287.78L269.725 287.36C269.585 287.22 269.585 287.08 269.725 286.94C270.005 286.66 270.285 286.52 270.425 286.1H270.705C270.985 286.24 271.265 286.38 271.545 286.52V286.8C271.545 287.22 271.265 287.78 271.125 288.2C271.125 288.34 270.985 288.34 270.845 288.34ZM273.505 288.34C273.365 288.48 273.365 288.48 273.365 288.34L272.945 286.94C272.805 286.94 272.805 286.8 272.945 286.8L273.925 286.38C274.065 287.08 274.205 287.64 274.485 288.2C274.065 288.2 273.785 288.34 273.505 288.34Z" fill="black"/>
<path d="M52.7585 62H58.6562V60.4787H54.6037V58.3949H58.3366V56.8736H54.6037V54.794H58.6392V53.2727H52.7585V62ZM60.1062 62H65.6928V60.4787H61.9513V53.2727H60.1062V62ZM66.9148 62H72.8125V60.4787H68.7599V58.3949H72.4929V56.8736H68.7599V54.794H72.7955V53.2727H66.9148V62ZM75.7667 62L76.4144 60.0099H79.5636L80.2113 62H82.1886L79.18 53.2727H76.8022L73.7894 62H75.7667ZM76.8832 58.5696L77.957 55.267H78.0252L79.0991 58.5696H76.8832ZM90.5387 53.2727H88.7021V58.7614H88.6254L84.8583 53.2727H83.239V62H85.0842V56.5071H85.1481L88.945 62H90.5387V53.2727ZM100.083 57.6364C100.083 54.7812 98.3104 53.1534 95.9964 53.1534C93.6697 53.1534 91.9098 54.7812 91.9098 57.6364C91.9098 60.4787 93.6697 62.1193 95.9964 62.1193C98.3104 62.1193 100.083 60.4915 100.083 57.6364ZM98.2124 57.6364C98.2124 59.4858 97.3345 60.4872 95.9964 60.4872C94.6541 60.4872 93.7805 59.4858 93.7805 57.6364C93.7805 55.7869 94.6541 54.7855 95.9964 54.7855C97.3345 54.7855 98.2124 55.7869 98.2124 57.6364ZM101.45 62H103.295V58.9062H104.642L106.295 62H108.332L106.478 58.608C107.471 58.1818 108.021 57.3168 108.021 56.1236C108.021 54.3892 106.875 53.2727 104.893 53.2727H101.45V62ZM103.295 57.4233V54.7812H104.539C105.605 54.7812 106.12 55.2543 106.12 56.1236C106.12 56.9886 105.605 57.4233 104.548 57.4233H103.295ZM115.848 53.2727H114.114L111.953 54.6406V56.277L113.952 55.0241H114.003V62H115.848V53.2727ZM122.708 55.7827H124.476C124.451 54.2273 123.172 53.1534 121.229 53.1534C119.316 53.1534 117.914 54.2102 117.922 55.7955C117.918 57.0824 118.826 57.8196 120.3 58.1733L121.25 58.4119C122.201 58.642 122.729 58.9148 122.733 59.5028C122.729 60.142 122.124 60.5767 121.186 60.5767C120.228 60.5767 119.537 60.1335 119.478 59.2599H117.692C117.739 61.1477 119.09 62.1236 121.208 62.1236C123.338 62.1236 124.591 61.1051 124.596 59.5071C124.591 58.054 123.496 57.2827 121.979 56.9418L121.195 56.7543C120.436 56.5795 119.801 56.2983 119.814 55.6719C119.814 55.1094 120.313 54.696 121.216 54.696C122.098 54.696 122.64 55.0966 122.708 55.7827ZM125.504 54.794H128.176V62H130V54.794H132.672V53.2727H125.504V54.794Z" fill="#7E7E7E"/>
<path d="M60.5781 73.348H62.483C62.4254 71.2514 60.5717 69.7301 57.9126 69.7301C55.2855 69.7301 53.272 71.2322 53.272 73.4886C53.272 75.3104 54.576 76.3778 56.679 76.9467L58.2259 77.3686C59.6257 77.7393 60.706 78.1996 60.706 79.3629C60.706 80.6413 59.4851 81.4851 57.804 81.4851C56.2827 81.4851 55.017 80.8075 54.902 79.3821H52.9205C53.0483 81.7536 54.8828 83.2173 57.8168 83.2173C60.8913 83.2173 62.6619 81.6001 62.6619 79.3821C62.6619 77.0234 60.5589 76.1094 58.897 75.7003L57.6186 75.3679C56.5959 75.1058 55.2344 74.6264 55.2408 73.3736C55.2408 72.2614 56.2571 71.4368 57.8679 71.4368C59.37 71.4368 60.4375 72.1399 60.5781 73.348ZM66.0769 86.6562C67.6557 86.6562 68.6593 85.8317 69.2218 84.3104L73.2807 73.201L71.2161 73.1818L68.7296 80.8011H68.6273L66.1408 73.1818H64.0953L67.6877 83.1278L67.4512 83.7798C66.9654 85.0518 66.2814 85.1669 65.2331 84.8793L64.7729 86.4453C65.003 86.554 65.5016 86.6562 66.0769 86.6562ZM75.0817 83H76.9929V76.9467C76.9929 75.6236 77.9197 74.7031 79.0064 74.7031C80.0675 74.7031 80.8026 75.4062 80.8026 76.4737V83H82.7074V76.7422C82.7074 75.5597 83.4297 74.7031 84.6761 74.7031C85.6861 74.7031 86.517 75.2656 86.517 76.5952V83H88.4283V76.4162C88.4283 74.1726 87.1754 73.054 85.3984 73.054C83.9858 73.054 82.9247 73.7315 82.4517 74.7798H82.3494C81.9212 73.706 81.0199 73.054 79.7095 73.054C78.4119 73.054 77.4467 73.6996 77.0376 74.7798H76.9162V73.1818H75.0817V83ZM91.1433 83H93.0098V81.4723H93.1696C93.5147 82.0987 94.2179 83.1918 96.0076 83.1918C98.3855 83.1918 100.111 81.2869 100.111 78.1101C100.111 74.9268 98.3599 73.054 95.9885 73.054C94.1667 73.054 93.5083 74.1662 93.1696 74.7734H93.0545V69.9091H91.1433V83ZM93.0162 78.0909C93.0162 76.0391 93.911 74.6776 95.5794 74.6776C97.3116 74.6776 98.1809 76.1413 98.1809 78.0909C98.1809 80.0597 97.286 81.5618 95.5794 81.5618C93.9366 81.5618 93.0162 80.1555 93.0162 78.0909ZM106.393 83.1982C109.161 83.1982 110.97 81.1719 110.97 78.1357C110.97 75.0803 109.161 73.054 106.393 73.054C103.625 73.054 101.816 75.0803 101.816 78.1357C101.816 81.1719 103.625 83.1982 106.393 83.1982ZM106.4 81.5938C104.591 81.5938 103.747 80.0149 103.747 78.1293C103.747 76.25 104.591 74.652 106.4 74.652C108.196 74.652 109.039 76.25 109.039 78.1293C109.039 80.0149 108.196 81.5938 106.4 81.5938ZM115.014 69.9091H113.103V83H115.014V69.9091ZM124.943 75.5788C124.547 74.0511 123.351 73.054 121.229 73.054C119.011 73.054 117.439 74.2237 117.439 75.9624C117.439 77.3558 118.282 78.2827 120.123 78.6918L121.785 79.0561C122.731 79.267 123.172 79.6889 123.172 80.3026C123.172 81.0632 122.36 81.6577 121.108 81.6577C119.963 81.6577 119.228 81.1655 118.998 80.2003L117.151 80.4815C117.471 82.2202 118.915 83.1982 121.12 83.1982C123.492 83.1982 125.135 81.9389 125.135 80.1619C125.135 78.7749 124.252 77.9183 122.45 77.5028L120.89 77.1449C119.81 76.8892 119.343 76.5249 119.35 75.8601C119.343 75.1058 120.162 74.5689 121.248 74.5689C122.437 74.5689 122.987 75.2273 123.211 75.8857L124.943 75.5788ZM136.985 69.2955H135.279L131.06 84.9688H132.767L136.985 69.2955ZM143.526 83H145.501V78.3977H148.186C151.222 78.3977 152.724 76.5632 152.724 74.147C152.724 71.7372 151.235 69.9091 148.192 69.9091H143.526V83ZM145.501 76.723V71.603H147.981C149.937 71.603 150.736 72.6641 150.736 74.147C150.736 75.63 149.937 76.723 148.007 76.723H145.501ZM161.106 78.9283C161.112 80.5966 159.872 81.3892 158.798 81.3892C157.616 81.3892 156.798 80.5327 156.798 79.1967V73.1818H154.886V79.4268C154.886 81.8622 156.222 83.1278 158.108 83.1278C159.585 83.1278 160.588 82.348 161.042 81.2997H161.144V83H163.023V73.1818H161.106V78.9283ZM167.503 77.1705C167.503 75.6044 168.461 74.7095 169.791 74.7095C171.089 74.7095 171.875 75.5597 171.875 76.9851V83H173.786V76.755C173.786 74.326 172.45 73.054 170.443 73.054C168.966 73.054 168.001 73.7379 167.547 74.7798H167.426V73.1818H165.591V83H167.503V77.1705ZM180.485 83.1982C182.805 83.1982 184.307 81.8047 184.518 79.8935H182.658C182.415 80.9545 181.591 81.581 180.498 81.581C178.881 81.581 177.839 80.2322 177.839 78.0909C177.839 75.9879 178.9 74.6648 180.498 74.6648C181.712 74.6648 182.454 75.4318 182.658 76.3523H184.518C184.314 74.3707 182.697 73.054 180.466 73.054C177.698 73.054 175.908 75.1378 175.908 78.1357C175.908 81.0952 177.634 83.1982 180.485 83.1982ZM191.145 73.1818H189.132V70.8295H187.221V73.1818H185.782V74.7159H187.221V80.5135C187.214 82.2969 188.576 83.1598 190.084 83.1278C190.691 83.1214 191.1 83.0064 191.324 82.9233L190.979 81.3445C190.851 81.37 190.615 81.4276 190.308 81.4276C189.688 81.4276 189.132 81.223 189.132 80.1172V74.7159H191.145V73.1818ZM199.479 78.9283C199.485 80.5966 198.245 81.3892 197.171 81.3892C195.989 81.3892 195.171 80.5327 195.171 79.1967V73.1818H193.259V79.4268C193.259 81.8622 194.595 83.1278 196.481 83.1278C197.958 83.1278 198.961 82.348 199.415 81.2997H199.517V83H201.396V73.1818H199.479V78.9283ZM206.822 83.2173C208.445 83.2173 209.359 82.3928 209.724 81.6577H209.8V83H211.667V76.4801C211.667 73.6229 209.417 73.054 207.857 73.054C206.08 73.054 204.444 73.7699 203.805 75.5597L205.601 75.9688C205.882 75.272 206.598 74.6009 207.883 74.6009C209.116 74.6009 209.749 75.2464 209.749 76.3587V76.4034C209.749 77.1001 209.033 77.0874 207.269 77.2919C205.409 77.5092 203.504 77.995 203.504 80.2259C203.504 82.1562 204.955 83.2173 206.822 83.2173ZM207.237 81.6832C206.157 81.6832 205.377 81.1974 205.377 80.2514C205.377 79.2287 206.285 78.8643 207.391 78.7173C208.011 78.6342 209.481 78.468 209.756 78.1932V79.4588C209.756 80.6222 208.829 81.6832 207.237 81.6832ZM218.796 73.1818H216.782V70.8295H214.871V73.1818H213.433V74.7159H214.871V80.5135C214.865 82.2969 216.226 83.1598 217.735 83.1278C218.342 83.1214 218.751 83.0064 218.975 82.9233L218.629 81.3445C218.502 81.37 218.265 81.4276 217.958 81.4276C217.338 81.4276 216.782 81.223 216.782 80.1172V74.7159H218.796V73.1818ZM220.91 83H222.821V73.1818H220.91V83ZM221.875 71.6669C222.533 71.6669 223.083 71.1555 223.083 70.5291C223.083 69.9027 222.533 69.3849 221.875 69.3849C221.21 69.3849 220.667 69.9027 220.667 70.5291C220.667 71.1555 221.21 71.6669 221.875 71.6669ZM229.528 83.1982C232.296 83.1982 234.105 81.1719 234.105 78.1357C234.105 75.0803 232.296 73.054 229.528 73.054C226.76 73.054 224.951 75.0803 224.951 78.1357C224.951 81.1719 226.76 83.1982 229.528 83.1982ZM229.534 81.5938C227.725 81.5938 226.882 80.0149 226.882 78.1293C226.882 76.25 227.725 74.652 229.534 74.652C231.33 74.652 232.174 76.25 232.174 78.1293C232.174 80.0149 231.33 81.5938 229.534 81.5938ZM238.149 77.1705C238.149 75.6044 239.108 74.7095 240.438 74.7095C241.735 74.7095 242.521 75.5597 242.521 76.9851V83H244.433V76.755C244.433 74.326 243.097 73.054 241.089 73.054C239.613 73.054 238.648 73.7379 238.194 74.7798H238.072V73.1818H236.238V83H238.149V77.1705Z" fill="black"/>
</svg>
